<svg width="78" height="78" viewBox="0 0 78 78" fill="none" xmlns="http://www.w3.org/2000/svg">
<g clip-path="url(#clip0_708_4856)">
<path d="M74.7587 33.9794C74.3619 33.7464 73.8715 33.7404 73.4691 33.9638L69.8915 35.9515L68.8996 1.2636C68.88 0.559813 68.3036 -0.000324859 67.5996 1.41355e-07H58.4996C57.7957 -0.000324859 57.2193 0.559813 57.1996 1.2636L55.988 43.68L51.9996 45.89V35.1C51.9993 34.3821 51.4169 33.8003 50.699 33.8006C50.4786 33.8008 50.2618 33.8569 50.0691 33.9638L28.5996 45.89V35.1C28.5993 34.3821 28.0169 33.8003 27.299 33.8006C27.0786 33.8008 26.8618 33.8569 26.6691 33.9638L3.26911 46.9638C2.8562 47.1928 2.59977 47.6278 2.59961 48.1V76.7C2.59961 77.4179 3.18168 78 3.89961 78H74.0996C74.8175 78 75.3996 77.4179 75.3996 76.7V35.1C75.3996 34.6393 75.1559 34.2129 74.7587 33.9794ZM59.7632 2.6H66.336L66.4114 5.2H59.6891L59.7632 2.6ZM59.6137 7.8H66.4855L67.3305 37.3737L58.6296 42.2058L59.6137 7.8ZM37.6996 75.4H29.8996V68.9H37.6996V75.4ZM48.0996 75.4H40.2996V68.9H48.0996V75.4ZM72.7996 75.4H50.6996V67.6C50.6996 66.8821 50.1175 66.3 49.3996 66.3H28.5996C27.8817 66.3 27.2996 66.8821 27.2996 67.6V75.4H5.19961V48.8657L25.9996 37.31V48.1C25.9999 48.8179 26.5823 49.3997 27.3003 49.3993C27.5206 49.3992 27.7374 49.3431 27.9301 49.2362L49.3996 37.31V48.1C49.3999 48.8179 49.9823 49.3997 50.7003 49.3993C50.9206 49.3992 51.1374 49.3431 51.3301 49.2362L63.5904 42.4255L69.2896 39.26L72.7996 37.31V75.4Z" fill="#111F52"/>
<path d="M20.7996 52H10.3996C9.68168 52 9.09961 52.5821 9.09961 53.3V58.5C9.09961 59.2179 9.68168 59.8 10.3996 59.8H20.7996C21.5175 59.8 22.0996 59.2179 22.0996 58.5V53.3C22.0996 52.5821 21.5175 52 20.7996 52ZM19.4996 57.2H11.6996V54.6H19.4996V57.2Z" fill="#3E7863"/>
<path d="M44.2 52H33.8C33.0821 52 32.5 52.5821 32.5 53.3V58.5C32.5 59.2179 33.0821 59.8 33.8 59.8H44.2C44.9179 59.8 45.5 59.2179 45.5 58.5V53.3C45.5 52.5821 44.9179 52 44.2 52ZM42.9 57.2H35.1V54.6H42.9V57.2Z" fill="#3E7863"/>
<path d="M67.6004 52H57.2004C56.4825 52 55.9004 52.5821 55.9004 53.3V58.5C55.9004 59.2179 56.4825 59.8 57.2004 59.8H67.6004C68.3183 59.8 68.9004 59.2179 68.9004 58.5V53.3C68.9004 52.5821 68.3183 52 67.6004 52ZM66.3004 57.2H58.5004V54.6H66.3004V57.2Z" fill="#3E7863"/>
</g>
<defs>
<clipPath id="clip0_708_4856">
<rect width="78" height="78" fill="white"/>
</clipPath>
</defs>
</svg>
