<svg width="80" height="80" viewBox="0 0 80 80" fill="none" xmlns="http://www.w3.org/2000/svg">
<g clip-path="url(#clip0_708_4714)">
<path d="M37.6913 59.2015C37.0896 58.7599 36.2429 58.8888 35.8007 59.4909L35.6337 59.7182C35.192 60.3198 35.3206 61.1652 35.9215 61.6079C36.1629 61.7859 36.4441 61.8718 36.7227 61.8718C37.1373 61.8718 37.5465 61.6818 37.8115 61.3227L37.981 61.0923C38.4231 60.4902 38.2934 59.6437 37.6913 59.2015Z" fill="#111F52"/>
<path d="M38.0439 72.0691L34.5653 65.7438L37.8131 61.3203C38.2554 60.7183 38.1256 59.8717 37.5234 59.4295C36.9214 58.9872 36.0748 59.117 35.6328 59.7194L31.8737 64.8389C31.562 65.2633 31.5251 65.8299 31.7787 66.2913L35.6737 73.3727V73.3725C35.9201 73.8202 36.3828 74.0735 36.8601 74.0735C37.0806 74.0733 37.304 74.0194 37.5107 73.9058C38.1651 73.546 38.4039 72.7236 38.0439 72.0691Z" fill="#111F52"/>
<path d="M48.1251 64.839L44.3813 59.7402C44.0709 59.3176 43.5448 59.1121 43.0301 59.214C42.5155 59.3151 42.106 59.7048 41.9788 60.2134C41.8812 60.604 41.9626 61.0174 42.2009 61.342L45.4327 65.7438L41.9779 72.0262C41.8682 72.2257 41.8105 72.4507 41.8105 72.6787C41.8105 73.296 42.2287 73.8351 42.8266 73.9887C42.9387 74.0176 43.0516 74.0315 43.1632 74.0315C43.6474 74.0315 44.1063 73.7703 44.3484 73.3307L48.2199 66.2917C48.4738 65.8299 48.4367 65.2634 48.1251 64.839Z" fill="#111F52"/>
<path d="M50.2688 43.5832C49.8239 43.3496 49.2861 43.3815 48.8722 43.6668C48.0677 44.221 47.3211 44.8082 46.6533 45.4118C43.0133 48.7024 39.555 48.2571 39.4196 48.2377C39.338 48.2249 39.255 48.219 39.173 48.2216C37.7344 48.2585 35.1406 46.944 32.3967 44.789C31.977 44.4594 31.5467 44.1454 31.117 43.8554C30.7027 43.5754 30.1672 43.5471 29.7256 43.7819C29.2839 44.0166 29.0078 44.476 29.0078 44.9763V49.6163C29.0078 50.0266 29.1945 50.4144 29.5145 50.6713C29.5523 50.7018 29.5917 50.7299 29.6323 50.7558L39.2231 57.1646C39.2247 57.1655 39.2261 57.1668 39.2277 57.1679L39.253 57.1848C39.4788 57.3341 39.7389 57.4096 40 57.4096C40.2197 57.4096 40.4394 57.3563 40.6402 57.249C40.6825 57.2263 40.7231 57.2015 40.7622 57.1749C40.7667 57.172 40.7713 57.169 40.776 57.1659C40.7813 57.1624 40.7866 57.1588 40.7919 57.1552L50.36 50.7616C50.3985 50.7373 50.436 50.711 50.4721 50.6829C50.8004 50.4266 50.9922 50.0333 50.9922 49.6168V44.7807C50.9922 44.2779 50.7138 43.8171 50.2688 43.5832ZM48.2869 48.8929L39.9999 54.4304L31.713 48.8927V47.6626C33.7308 49.129 36.6991 50.9276 39.1186 50.9274C39.1236 50.9274 39.1292 50.9274 39.1344 50.9274C39.9467 51.0173 44.0894 51.2615 48.2872 47.579V48.8929H48.2869Z" fill="#111F52"/>
<path d="M41.3348 55.835C41.2456 55.2986 40.8436 54.8678 40.3145 54.7415C39.7851 54.6161 39.2323 54.8184 38.9104 55.2568L35.8015 59.4914C35.3594 60.0936 35.489 60.9401 36.0914 61.3822C36.3325 61.5593 36.6128 61.6447 36.8908 61.6447C37.3067 61.6447 37.717 61.4533 37.9823 61.0922L41.075 56.88C41.2509 56.65 41.3534 56.3637 41.3534 56.0578C41.3533 55.9834 41.347 55.9084 41.3348 55.835Z" fill="#111F52"/>
<path d="M60.607 12.2301C60.5802 12.0182 59.9466 7.44542 55.6422 5.64151C55.7672 4.83839 55.7541 3.8062 55.2442 2.80198C54.5589 1.45229 53.2066 0.572755 51.2245 0.187441C51.1395 0.170879 51.0533 0.162598 50.9665 0.162598H32.8123C25.4407 0.162598 19.4434 6.1598 19.4434 13.5317V20.6553C19.4434 22.5112 20.076 24.3211 21.2245 25.7511C21.7938 26.4602 22.4951 27.6984 22.6009 29.5706C22.6421 30.3016 23.254 30.8664 23.9895 30.8461C24.7213 30.8255 25.3038 30.2261 25.3038 29.4941V20.2065C26.2223 16.4083 29.3568 15.669 29.8957 15.5692H35.7679C36.4587 15.5692 37.1379 15.4637 37.7871 15.2556C38.9037 14.8975 40.6751 14.2384 41.9648 13.7486C42.8276 13.4206 43.7829 13.4086 44.6543 13.7148L50.9409 15.9217C54.0837 17.0811 54.6447 19.8401 54.7142 20.2736V31.42C54.7142 32.128 55.26 32.7153 55.9659 32.768C56.0003 32.7705 56.0341 32.7719 56.0678 32.7719C56.7312 32.7717 57.3041 32.2856 57.4045 31.6195C57.4098 31.5847 57.9498 28.0961 59.6914 25.303C60.2973 24.3306 60.6178 23.222 60.6178 22.097V12.4009C60.6178 12.3439 60.6142 12.2868 60.607 12.2301ZM57.9125 22.0964C57.9125 22.7006 57.742 23.3 57.4192 23.833V20.1811C57.4192 20.1322 57.4166 20.0836 57.4112 20.035C57.39 19.8386 56.8311 15.2033 51.8647 13.3789C51.8586 13.3767 51.8525 13.3745 51.8464 13.3723L45.5503 11.162C44.8404 10.9128 44.0978 10.7884 43.3556 10.7884C42.5575 10.7884 41.7598 10.9323 41.004 11.2198C39.1984 11.9057 37.8001 12.4106 36.9609 12.6797C36.5792 12.802 36.1778 12.8642 35.7678 12.8642H29.7863C29.7284 12.8642 29.6703 12.8679 29.6126 12.8753C29.3837 12.905 23.9888 13.6722 22.6312 19.7573C22.6096 19.854 22.5987 19.9528 22.5987 20.0519V22.8356C22.3041 22.155 22.1482 21.4115 22.1482 20.6555V13.532C22.1482 7.65199 26.9321 2.86807 32.812 2.86807H50.83C51.5759 3.02698 52.4825 3.35307 52.8264 4.01651C53.2475 4.82854 52.7678 5.94667 52.7673 5.94761C52.5944 6.31558 52.5964 6.74167 52.7722 7.10808C52.9481 7.47449 53.2797 7.7423 53.675 7.83746C57.1184 8.66636 57.8208 11.969 57.9123 12.5032V22.0964H57.9125Z" fill="#111F52"/>
<path d="M57.4104 20.0348C57.3891 19.8384 56.8302 15.2031 51.8638 13.3787C51.8577 13.3765 51.8516 13.3743 51.8455 13.3722L45.5494 11.1618C44.076 10.6446 42.4616 10.6653 41.003 11.2193C39.1974 11.9053 37.7991 12.4101 36.9599 12.6793C36.5782 12.8017 36.1767 12.8637 35.7667 12.8637H29.7853C29.7274 12.8637 29.6692 12.8675 29.6116 12.8748C29.3827 12.9045 23.9878 13.6717 22.6302 19.7569C22.6086 19.8536 22.5977 19.9523 22.5977 20.0514V31.6789C22.5977 31.6889 22.5978 31.6989 22.598 31.7089C22.6069 32.1128 22.8927 41.6514 29.4833 46.0138L29.5174 46.0378C29.5456 46.0578 29.5739 46.0778 29.6034 46.0977C29.9792 46.3514 30.3566 46.6269 30.7256 46.9166C32.6456 48.4243 36.2639 50.9275 39.1183 50.9275C39.1236 50.9275 39.1286 50.9275 39.1341 50.9275C39.2891 50.9446 39.5658 50.9674 39.9411 50.9674C41.5588 50.9674 45.01 50.5435 48.4669 47.4185C49.0471 46.8942 49.6994 46.3814 50.4066 45.8942L50.5077 45.8235C50.5407 45.8002 50.5736 45.7767 50.6077 45.7539C52.8062 44.2774 56.6137 40.4674 57.413 31.5402C57.4166 31.5002 57.4185 31.4597 57.4185 31.4194V20.1809C57.4183 20.1322 57.4155 20.0836 57.4104 20.0348ZM54.713 31.3583C53.976 39.4149 50.5433 42.5381 49.0993 43.508C49.048 43.5425 48.9974 43.5781 48.9468 43.6138L48.8718 43.6666C48.0672 44.2208 47.3207 44.808 46.6529 45.4116C43.0264 48.69 39.5794 48.26 39.4103 48.2363C39.3318 48.2246 39.2521 48.2196 39.1725 48.2218C37.7339 48.2586 35.1402 46.9441 32.3963 44.7891C31.9766 44.4594 31.5463 44.1453 31.1172 43.8558L31.0839 43.8324C31.0514 43.8092 31.0191 43.7863 30.981 43.761C25.6625 40.2408 25.3145 32.0031 25.3028 31.6594V20.2062C26.2245 16.394 29.3785 15.6632 29.8925 15.5689H35.7669C36.4577 15.5689 37.1369 15.4634 37.7861 15.2553C38.9027 14.8972 40.6743 14.2381 41.9638 13.7482C42.8266 13.4203 43.7819 13.4082 44.6533 13.7145L50.9399 15.9214C54.0827 17.0808 54.6437 19.8398 54.7132 20.2733V31.3583H54.713Z" fill="#111F52"/>
<path d="M41.2088 55.4529C40.998 55.0314 40.583 54.75 40.1135 54.71C39.6447 54.6712 39.1876 54.8773 38.9086 55.2573L35.6686 59.6701C35.2269 60.272 35.356 61.1179 35.9574 61.5603C36.1986 61.7378 36.4794 61.8236 36.7577 61.8236C37.1727 61.8236 37.5824 61.6331 37.8475 61.2733L41.0877 56.8767C41.2591 56.6442 41.3516 56.347 41.3516 56.0582C41.3518 55.8484 41.3026 55.6409 41.2088 55.4529Z" fill="#111F52"/>
<path d="M41.2974 77.2308C40.7893 76.6994 39.9497 76.6711 39.4072 77.1675L39.098 77.4504C38.635 77.8736 38.524 78.5599 38.8299 79.1077L38.8394 79.1247C39.046 79.4949 39.4144 79.7468 39.8343 79.805C39.8965 79.8136 39.9586 79.8179 40.0205 79.8179C40.3766 79.8179 40.7215 79.6771 40.9769 79.4216L41.2765 79.1218C41.7963 78.6019 41.8057 77.7619 41.2974 77.2308Z" fill="#111F52"/>
<path d="M40.9028 77.4502L40.5936 77.1674C40.0511 76.6712 39.2114 76.6995 38.7033 77.2307C38.195 77.7623 38.2044 78.6024 38.7244 79.1221L39.0244 79.422C39.2798 79.6774 39.6245 79.8181 39.9806 79.8181C40.0442 79.8181 40.1081 79.8137 40.172 79.8045C40.5933 79.7443 40.9617 79.4892 41.1666 79.116L41.1761 79.099C41.4758 78.5521 41.363 77.871 40.9028 77.4502Z" fill="#111F52"/>
<path d="M40.9255 77.4713L40.9238 77.4697C40.7148 77.2744 40.4447 77.1457 40.147 77.113C39.7484 77.0696 39.3602 77.2046 39.0778 77.4675L39.0738 77.4713C38.8003 77.7207 38.6411 78.0714 38.6331 78.4414C38.6252 78.8118 38.7692 79.1688 39.0316 79.4297L39.0458 79.4439C39.3097 79.7063 39.6545 79.8374 39.9995 79.8374C40.3458 79.8374 40.6919 79.7052 40.9558 79.4414L40.97 79.4272C41.2313 79.1658 41.3744 78.8091 41.3658 78.4397C41.3577 78.0702 41.1984 77.7203 40.9255 77.4713Z" fill="#111F52"/>
<path d="M40.4389 54.7484C39.8787 54.569 39.264 54.777 38.9229 55.2567C38.5414 55.7939 38.6044 56.5259 39.0692 56.9929C39.3308 57.2557 39.6779 57.3904 40.0278 57.3904C40.2995 57.3904 40.5726 57.3092 40.8083 57.1432C41.1683 56.89 41.3825 56.4774 41.3825 56.0371V56.0339C41.3825 55.4453 40.9997 54.9273 40.4389 54.7484Z" fill="#111F52"/>
<path d="M41.0982 55.2455L41.0866 55.2299C40.7396 54.7602 40.1302 54.5668 39.5757 54.7494C39.0212 54.9321 38.6465 55.4502 38.6465 56.034V56.0571C38.6465 56.5551 38.926 57.009 39.3648 57.2446C39.5635 57.3513 39.7829 57.404 40.002 57.404C40.2662 57.404 40.5301 57.3274 40.757 57.1771C41.0662 56.9724 41.2779 56.6496 41.3424 56.2844C41.407 55.9194 41.3187 55.5437 41.0982 55.2455Z" fill="#111F52"/>
<path d="M56.0914 50.9965C55.9513 50.626 55.6558 50.3357 55.283 50.2023L50.0969 48.3432C50.0549 48.3282 50.0113 48.3148 49.9678 48.3042C49.5977 48.2115 49.2055 48.2795 48.8883 48.4917L39.2792 54.9126C39.2767 54.9143 39.2739 54.916 39.2712 54.9179L40.0258 56.0398L39.2544 54.9293C38.9725 55.1157 38.7706 55.4015 38.6887 55.7293C38.6437 55.9093 38.6364 56.0973 38.6669 56.2803C38.7017 56.4893 38.7851 56.6875 38.9108 56.8586L45.9459 66.44C46.2016 66.7884 46.6072 66.9922 47.0359 66.9922C47.0653 66.9922 47.0948 66.9911 47.1244 66.989C47.5852 66.9587 47.9988 66.6959 48.2213 66.2911L56.0114 52.1273C56.2025 51.7801 56.2317 51.3667 56.0914 50.9965ZM46.8722 63.1308L41.9276 56.3964L49.8248 51.1193L52.8769 52.2135L46.8722 63.1308Z" fill="#111F52"/>
<path d="M41.3329 55.8241C41.2693 55.461 41.0604 55.1396 40.7541 54.9341L31.113 48.4918C30.8061 48.2865 30.4278 48.2161 30.0674 48.2961C30.0121 48.3083 29.9577 48.3243 29.9044 48.3433L24.7183 50.2024C24.3455 50.336 24.05 50.6263 23.9099 50.9966C23.7697 51.3671 23.7988 51.7802 23.9897 52.1274L31.7799 66.2912C32.0024 66.6959 32.416 66.9588 32.8768 66.9892C32.9061 66.991 32.9357 66.992 32.965 66.992C33.3938 66.992 33.7993 66.7882 34.0553 66.4396L37.8144 61.3201C37.8174 61.3162 37.8204 61.3119 37.8233 61.3077L41.0907 56.8576C41.3088 56.5604 41.3963 56.1873 41.3329 55.8241ZM35.6341 59.7185C35.6308 59.7229 35.6277 59.7273 35.6244 59.7316L33.1286 63.1309L27.1239 52.2135L30.1761 51.1194L38.0732 56.3965L35.6341 59.7185Z" fill="#111F52"/>
<path d="M44.6036 60.8684C44.7012 60.4778 44.6198 60.0642 44.3815 59.7397L41.09 55.257C40.744 54.7858 40.134 54.5984 39.5787 54.7806C39.2789 54.8789 39.0318 55.0773 38.8675 55.3309L35.6361 59.7155C35.5898 59.778 35.5487 59.8452 35.5139 59.9149C35.2925 60.3578 35.3307 60.8863 35.6136 61.2927L36.9897 63.2688L35.5237 72.5089C35.4767 72.8057 35.5298 73.1094 35.6745 73.3727L38.8148 79.0822C39.0525 79.5146 39.5068 79.783 40 79.783C40.4933 79.783 40.9475 79.5146 41.1851 79.0822L44.3489 73.3303C44.4586 73.1307 44.5162 72.9064 44.5162 72.6786V72.6778C44.5162 72.6069 44.5104 72.536 44.4995 72.4658L43.0403 63.2689L44.4015 61.3145C44.495 61.1792 44.5639 61.0278 44.6036 60.8684ZM40 75.6239L38.2679 72.475L39.7467 63.1549C39.8015 62.8095 39.7204 62.4567 39.5208 62.17L38.3873 60.5422L40.0039 58.3488L41.6289 60.5619L40.509 62.17C40.3093 62.4566 40.2284 62.8095 40.2831 63.1549L41.7551 72.4325L40 75.6239Z" fill="#3E7863"/>
<path d="M79.9325 74.0868L78.1877 63.5503C77.6378 60.2299 75.3302 57.4556 72.1652 56.311L55.2848 50.2038C54.7644 50.0156 54.1826 50.1631 53.8148 50.5759C53.447 50.9889 53.3675 51.5842 53.6144 52.0794L57.1387 59.1472L53.6804 59.2005C53.2109 59.2078 52.7786 59.4578 52.5387 59.8616C52.2987 60.2653 52.2853 60.7644 52.5031 61.1805L53.9215 63.8888L39.4054 77.168C39.3906 77.1816 39.376 77.1954 39.3618 77.2096L39.0621 77.5093C38.6376 77.934 38.5437 78.5877 38.832 79.1146L38.8426 79.1338C39.0799 79.5674 39.535 79.8373 40.0293 79.8373H75.0561C76.5113 79.8373 77.8853 79.2008 78.8261 78.0912C79.7671 76.9815 80.1703 75.5218 79.9325 74.0868ZM76.7633 76.3416C76.3371 76.8441 75.7149 77.1322 75.0563 77.1322H43.4521L56.5164 65.1816C56.9695 64.7674 57.0867 64.1 56.8017 63.5561L55.9192 61.8713L59.3295 61.8188C59.7944 61.8117 60.2226 61.5663 60.4644 61.1692C60.7058 60.7719 60.7266 60.2788 60.5192 59.8627L57.5447 53.8977L71.2456 58.8544C73.4917 59.6669 75.1294 61.6357 75.5196 63.9921L77.2644 74.5285C77.2644 74.5286 77.2644 74.5286 77.2644 74.5286C77.3719 75.1785 77.1894 75.8391 76.7633 76.3416Z" fill="#111F52"/>
<path d="M40.9385 77.4822L40.9227 77.4679C40.3874 76.9832 39.5652 77.0048 39.0559 77.517L39.0418 77.5312C38.6566 77.9187 38.5424 78.5 38.7521 79.0043C38.962 79.5089 39.4548 79.8375 40.001 79.8375H40.0307C40.5899 79.8375 41.0917 79.4931 41.2926 78.9714C41.494 78.4493 41.3532 77.8575 40.9385 77.4822Z" fill="#111F52"/>
<path d="M40.8958 77.4432C40.5887 77.1668 40.1723 77.0457 39.7645 77.1152C39.3572 77.1841 39.0037 77.4358 38.805 77.798L38.7956 77.815C38.5104 78.3349 38.5972 78.9799 39.0095 79.4061L39.0144 79.4111C39.2794 79.685 39.6325 79.8232 39.9865 79.8232C40.3123 79.8232 40.639 79.706 40.8978 79.4696L40.912 79.4568C41.0348 79.3449 41.1361 79.2108 41.2105 79.0621C41.4828 78.5178 41.3481 77.85 40.8958 77.4432Z" fill="#111F52"/>
<path d="M40.9536 77.5259L40.9479 77.5201C40.9443 77.5165 40.9406 77.5127 40.9371 77.5093L40.6371 77.2096C40.6231 77.1954 40.6086 77.1815 40.5939 77.1682L26.0777 63.8889L27.4963 61.1807C27.7143 60.7647 27.7007 60.2655 27.4609 59.8618C27.2209 59.4582 26.7887 59.208 26.3191 59.2007L22.8605 59.1474L26.3849 52.0796C26.6318 51.5845 26.5521 50.9891 26.1845 50.5761C25.8168 50.1631 25.2343 50.0155 24.7145 50.2039L7.83427 56.3111C4.66926 57.4557 2.36144 60.2299 1.8116 63.5505L0.0667502 74.0869C-0.170906 75.5226 0.232532 76.9819 1.17347 78.0915C2.11457 79.201 3.48879 79.8374 4.94348 79.8374H40.0001C40.5479 79.8374 41.0415 79.5069 41.2503 79.0007C41.4592 78.4944 41.342 77.9119 40.9536 77.5259ZM4.94363 77.1324C4.28488 77.1324 3.66269 76.8443 3.23676 76.3418C2.81082 75.8394 2.62832 75.1787 2.73582 74.5287L4.48067 63.9922C4.87082 61.6355 6.50848 59.6671 8.75458 58.8546L22.4554 53.8978L19.481 59.8625C19.2735 60.2786 19.2941 60.7718 19.5359 61.1691C19.7773 61.5663 20.2059 61.8116 20.6707 61.8186L24.081 61.8713L23.1985 63.5561C22.9137 64.0999 23.0309 64.7674 23.4837 65.1816L36.5479 77.1324H4.94363Z" fill="#111F52"/>
</g>
<defs>
<clipPath id="clip0_708_4714">
<rect width="80" height="80" fill="white"/>
</clipPath>
</defs>
</svg>
