<svg width="78" height="78" viewBox="0 0 78 78" fill="none" xmlns="http://www.w3.org/2000/svg">
<g clip-path="url(#clip0_708_4901)">
<path d="M22.4735 33.3188H72.6683C74.1406 33.3188 75.4684 33.9191 76.4331 34.8831V34.8923C77.3971 35.8569 77.9979 37.1847 77.9979 38.6478V72.6698C77.9979 74.1324 77.3971 75.4693 76.4331 76.4333C75.4684 77.3986 74.1406 77.9982 72.6683 77.9982H22.4735C21.0104 77.9982 19.6734 77.3986 18.7094 76.4333C17.7448 75.4693 17.1445 74.1409 17.1445 72.6698V38.6478C17.1445 37.1847 17.7448 35.8478 18.7094 34.8831C19.674 33.9191 21.0104 33.3188 22.4735 33.3188ZM72.6683 35.7551H22.4735C21.6783 35.7551 20.9592 36.0848 20.4352 36.6089C19.9105 37.1335 19.5808 37.8526 19.5808 38.6478V72.6698C19.5808 73.4651 19.9105 74.1921 20.4352 74.7167C20.9586 75.2402 21.6783 75.5619 22.4735 75.5619H72.6683C73.4636 75.5619 74.1906 75.2408 74.7152 74.7167C75.2393 74.1921 75.5616 73.4645 75.5616 72.6698V38.6478C75.5616 37.8526 75.2399 37.1256 74.7152 36.6009V36.6095C74.1906 36.0854 73.4636 35.7551 72.6683 35.7551Z" fill="#111F52"/>
<path d="M37.3957 23.1599H57.7561C58.9152 23.1599 59.9803 23.6334 60.7421 24.403C61.5032 25.1727 61.9858 26.2306 61.9858 27.389V34.5363V35.7545H60.767H55.6245H54.407V34.5363V30.5784H40.7454V34.5369V35.7551H39.5267H34.3842H33.166V34.5369V27.389C33.166 26.2306 33.6395 25.1641 34.4006 24.403C35.1703 23.6334 36.2287 23.1599 37.3957 23.1599ZM57.7555 25.5962H37.3957C36.9045 25.5962 36.4566 25.7985 36.1264 26.1288C35.8052 26.4505 35.6029 26.8984 35.6029 27.389V33.3182H38.3091V29.3597V28.1422H39.5273H55.6245H56.8433V29.3597V33.3188H59.5495V27.3896C59.5495 26.8984 59.3466 26.4505 59.0255 26.1294H59.0163C58.6946 25.7991 58.2467 25.5962 57.7555 25.5962Z" fill="#111F52"/>
<path d="M13.4574 66.1141C14.1259 66.1141 14.6756 66.6546 14.6756 67.3317C14.6756 67.9995 14.1259 68.5492 13.4574 68.5492H3.65442C2.65627 68.5492 1.74281 68.1348 1.07433 67.4755V67.4669C0.414375 66.807 0 65.8941 0 64.8869V3.65381C0 2.65566 0.414375 1.7422 1.07433 1.07433C1.73367 0.414375 2.64713 0 3.65442 0H37.9202C38.4449 0 38.9354 0.101766 39.393 0.304687C39.8415 0.507609 40.2474 0.803156 40.6112 1.18402V1.19255V1.18402L49.806 11.0218C49.831 11.0474 49.8481 11.0723 49.8737 11.0979C50.1686 11.4276 50.3807 11.792 50.533 12.1723C50.6854 12.5872 50.7701 13.0266 50.7701 13.4922V19.464C50.7701 20.1405 50.2204 20.6822 49.5519 20.6822C48.8755 20.6822 48.3253 20.1405 48.3253 19.464V13.4922C48.3253 13.3228 48.3088 13.171 48.2576 13.0351C48.207 12.9255 48.1479 12.8237 48.0718 12.7219C48.0547 12.7055 48.037 12.6969 48.0206 12.6799L38.8343 2.84212C38.7069 2.70684 38.5637 2.60508 38.4113 2.52891C38.2681 2.4698 38.1073 2.43628 37.9208 2.43628H3.65442C3.32475 2.43628 3.02006 2.57156 2.80008 2.80008L2.79155 2.79155C2.57156 3.01092 2.43628 3.32414 2.43628 3.65381V64.8869C2.43628 65.2251 2.57156 65.5297 2.79155 65.7497L2.80008 65.7583C3.02006 65.9703 3.32414 66.1141 3.65442 66.1141H13.4574Z" fill="#111F52"/>
<path d="M43.1557 55.524L22.2541 51.5557C20.8416 51.2937 19.5382 50.6764 18.6003 49.7373C17.7027 48.8409 17.1445 47.6655 17.1445 46.2523H19.5808C19.5808 46.9714 19.869 47.5637 20.3255 48.0207C20.9092 48.5954 21.7636 48.9933 22.7026 49.1706L43.6042 53.1376L43.1557 55.524ZM77.9973 46.2523C77.9973 47.6649 77.4391 48.8324 76.5421 49.7288V49.7373C75.6031 50.6764 74.3009 51.2943 72.8969 51.5557L51.9947 55.5569L51.5383 53.1718L72.4398 49.1706C73.3874 48.9848 74.2417 48.596 74.8249 48.0207C75.282 47.5637 75.561 46.9708 75.561 46.2523H77.9973Z" fill="#111F52"/>
<path d="M31.0443 10.886C31.7207 10.886 32.2624 11.4277 32.2624 12.1041C32.2624 12.7726 31.7207 13.3223 31.0443 13.3223H14.0427C13.3657 13.3223 12.824 12.7726 12.824 12.1041C12.824 11.4277 13.3657 10.886 14.0427 10.886H31.0443ZM8.23902 10.886C8.91603 10.886 9.4663 11.4277 9.4663 12.1041C9.4663 12.7726 8.91664 13.3223 8.23902 13.3223H7.32617C6.65708 13.3223 6.10742 12.7726 6.10742 12.1041C6.10742 11.4277 6.65708 10.886 7.32617 10.886H8.23902Z" fill="#3E7863"/>
<path d="M23.0334 21.9419C23.7019 21.9419 24.2516 22.4909 24.2516 23.16C24.2516 23.8364 23.7019 24.3776 23.0334 24.3776H14.0421C13.3657 24.3776 12.824 23.8364 12.824 23.16C12.824 22.4916 13.3657 21.9419 14.0421 21.9419H23.0334ZM8.23963 21.9419C8.91603 21.9419 9.4663 22.4909 9.4663 23.16C9.4663 23.8364 8.91664 24.3776 8.23963 24.3776H7.32617C6.65769 24.3776 6.10742 23.8364 6.10742 23.16C6.10742 22.4916 6.65708 21.9419 7.32617 21.9419H8.23963Z" fill="#3E7863"/>
<path d="M31.0443 16.418C31.7207 16.418 32.2624 16.9597 32.2624 17.6361C32.2624 18.304 31.7207 18.8543 31.0443 18.8543H14.0427C13.3657 18.8543 12.824 18.3046 12.824 17.6361C12.824 16.9597 13.3657 16.418 14.0427 16.418H31.0443ZM8.23902 16.418C8.91603 16.418 9.4663 16.9597 9.4663 17.6361C9.4663 18.304 8.91664 18.8543 8.23902 18.8543H7.32617C6.65708 18.8543 6.10742 18.3046 6.10742 17.6361C6.10742 16.9597 6.65708 16.418 7.32617 16.418H8.23902Z" fill="#3E7863"/>
<path d="M39.1716 0.447891L50.2604 12.4849C50.7089 12.9754 50.6839 13.7451 50.1842 14.2015C49.9557 14.4129 49.6608 14.5232 49.364 14.5232H41.7261C40.4238 14.5232 39.2478 13.99 38.3934 13.1363C38.3684 13.1107 38.3422 13.0857 38.3172 13.0601C37.5049 12.2137 37.0059 11.0638 37.0059 9.80302V1.21814C37.0059 0.549656 37.5476 0 38.2246 0C38.6043 0 38.9431 0.177328 39.1716 0.447891ZM46.5901 12.0876L39.4421 4.33875V9.80362C39.4421 10.4124 39.6792 10.962 40.06 11.3679C40.0765 11.385 40.0942 11.402 40.1112 11.4191C40.5256 11.8335 41.1002 12.087 41.7261 12.087L46.5901 12.0876Z" fill="#111F52"/>
<path d="M55.3888 6.56358C55.2535 7.22292 54.6112 7.64583 53.9513 7.50262C53.2913 7.36673 52.8684 6.72445 53.0037 6.07242L53.4693 3.85612L54.078 0.971951C54.1963 0.397311 54.7039 -0.0012207 55.2706 -0.0012207H57.4022H59.5338C60.1511 -0.0012207 60.6593 0.455811 60.7434 1.05604L61.6398 5.31923C62.2656 5.49717 62.875 5.70862 63.4667 5.95359C64.0675 6.19917 64.6507 6.48679 65.2089 6.80001L68.9395 4.36373C69.4215 4.05051 70.0559 4.12669 70.4532 4.52461H70.4623L71.9681 6.03037C71.9845 6.05597 72.0101 6.07303 72.0278 6.09801L73.4738 7.54467C73.8961 7.95904 73.9394 8.619 73.6097 9.09248L71.1984 12.7883C71.5196 13.3471 71.7993 13.9303 72.0528 14.5312C72.2898 15.1229 72.5013 15.7322 72.6786 16.3581L77.0265 17.28C77.6273 17.3983 78.0332 17.94 77.9997 18.5317V20.5969V22.7285C77.9997 23.3458 77.5432 23.8619 76.9424 23.9381L72.6792 24.8345C72.5019 25.4688 72.2898 26.0782 72.0534 26.6614C71.6981 27.5157 71.2752 28.3274 70.7932 29.0812C70.4385 29.6558 69.6854 29.8252 69.1101 29.4615C68.5434 29.0977 68.3746 28.3451 68.7378 27.7777C69.1528 27.1269 69.508 26.4414 69.8042 25.7315C70.0918 25.0374 70.3197 24.3269 70.4891 23.5999C70.5653 23.1179 70.937 22.7199 71.4367 22.6102L75.5634 21.7474V20.5969H75.5719V19.4549L71.4355 18.5835C70.9876 18.4909 70.6067 18.1435 70.4964 17.6615C70.3356 16.9089 70.0991 16.1813 69.803 15.4629C69.5068 14.7524 69.1515 14.0668 68.7366 13.416C68.4916 13.0266 68.4831 12.519 68.7451 12.1046L71.0552 8.56903L70.31 7.81645C70.285 7.8 70.2685 7.78233 70.2423 7.75673L69.4306 6.94504L65.9706 9.20339C65.5733 9.50747 65.023 9.54159 64.5843 9.2625C63.9329 8.84812 63.2479 8.49286 62.5374 8.1967C61.8433 7.90908 61.1249 7.68056 60.3973 7.51176C59.9238 7.43559 59.5173 7.07179 59.4162 6.56419L58.5435 2.43567H57.4022H56.2511L55.8538 4.34728L55.3888 6.56358ZM57.4022 13.0516C56.7252 13.0516 56.1834 12.5099 56.1834 11.8335C56.1834 11.157 56.7252 10.6153 57.4022 10.6153C60.159 10.6153 62.6544 11.7323 64.4648 13.5421C66.2668 15.3441 67.3831 17.8395 67.3831 20.5969C67.3831 21.3245 67.307 22.0435 67.1546 22.7285C67.0023 23.4299 66.7738 24.1075 66.4788 24.7583C66.1991 25.3677 65.4801 25.6382 64.8628 25.3591C64.254 25.0794 63.9914 24.3604 64.2711 23.7516C64.4904 23.2781 64.6598 22.762 64.7781 22.2202C64.8884 21.6962 64.9475 21.1544 64.9475 20.5963C64.9475 18.5152 64.1017 16.6286 62.7397 15.2587C61.3692 13.898 59.4826 13.0516 57.4022 13.0516Z" fill="#111F52"/>
<path d="M43.555 46.287H51.5988C52.2337 46.287 52.8084 46.549 53.2233 46.9628L53.2319 46.9713C53.6469 47.3869 53.9083 47.9701 53.9083 48.6044V57.5202C53.9083 59.2624 53.1984 60.8443 52.0473 61.9942C50.9059 63.1453 49.3154 63.8559 47.5726 63.8559C45.8298 63.8559 44.2479 63.1453 43.098 61.9942C41.9554 60.8443 41.2363 59.263 41.2363 57.5202V48.6044C41.2363 47.9701 41.499 47.3857 41.9219 46.9713V46.9628C42.3448 46.549 42.9206 46.287 43.555 46.287ZM51.4726 48.7233H43.6818V57.5202C43.6818 58.5854 44.1132 59.5671 44.8237 60.2697C45.5343 60.9802 46.5074 61.4196 47.5726 61.4196C48.6475 61.4196 49.6195 60.9802 50.33 60.2697C51.032 59.5677 51.4726 58.5854 51.4726 57.5202V48.7233Z" fill="#3E7863"/>
<path d="M47.5717 58.5769C48.2444 58.5769 48.7898 58.0315 48.7898 57.3588C48.7898 56.686 48.2444 56.1406 47.5717 56.1406C46.8989 56.1406 46.3535 56.686 46.3535 57.3588C46.3535 58.0315 46.8989 58.5769 47.5717 58.5769Z" fill="#111F52"/>
</g>
<defs>
<clipPath id="clip0_708_4901">
<rect width="78" height="78" fill="white"/>
</clipPath>
</defs>
</svg>
