<svg width="82" height="82" viewBox="0 0 82 82" fill="none" xmlns="http://www.w3.org/2000/svg">
<path d="M78.1562 47.4062C78.4961 47.4062 78.822 47.2713 79.0622 47.031C79.3025 46.7907 79.4375 46.4648 79.4375 46.125V35.875C79.4375 35.5352 79.3025 35.2093 79.0622 34.969C78.822 34.7287 78.4961 34.5938 78.1562 34.5938H71.0671C70.2883 30.9193 68.8389 27.4198 66.7916 24.2707L71.7987 19.2521C72.0385 19.0118 72.1732 18.6863 72.1732 18.3469C72.1732 18.0074 72.0385 17.6819 71.7987 17.4417L64.5596 10.2026C64.3194 9.96279 63.9939 9.8281 63.6544 9.8281C63.315 9.8281 62.9894 9.96279 62.7492 10.2026L57.7293 15.2084C54.5802 13.1611 51.0807 11.7117 47.4062 10.9329V3.84375C47.4062 3.50394 47.2713 3.17805 47.031 2.93777C46.7907 2.69749 46.4648 2.5625 46.125 2.5625H35.875C35.5352 2.5625 35.2093 2.69749 34.969 2.93777C34.7287 3.17805 34.5938 3.50394 34.5938 3.84375V10.9329C30.9193 11.7117 27.4198 13.1611 24.2707 15.2084L19.2521 10.2013C19.0118 9.96151 18.6863 9.82682 18.3469 9.82682C18.0074 9.82682 17.6819 9.96151 17.4417 10.2013L10.2026 17.4404C9.96279 17.6806 9.8281 18.0061 9.8281 18.3456C9.8281 18.685 9.96279 19.0106 10.2026 19.2508L15.2097 24.2694C13.1618 27.4188 11.7119 30.9187 10.9329 34.5938H3.84375C3.50394 34.5938 3.17805 34.7287 2.93777 34.969C2.69749 35.2093 2.5625 35.5352 2.5625 35.875V46.125C2.5625 46.4648 2.69749 46.7907 2.93777 47.031C3.17805 47.2713 3.50394 47.4062 3.84375 47.4062H10.9329C11.7117 51.0807 13.1611 54.5802 15.2084 57.7293L10.2013 62.7479C9.96151 62.9882 9.82682 63.3137 9.82682 63.6531C9.82682 63.9926 9.96151 64.3181 10.2013 64.5583L17.4404 71.7974C17.6806 72.0372 18.0061 72.1719 18.3456 72.1719C18.685 72.1719 19.0106 72.0372 19.2508 71.7974L24.2694 66.7903C27.4188 68.8382 30.9187 70.2881 34.5938 71.0671V78.1562C34.5938 78.4961 34.7287 78.822 34.969 79.0622C35.2093 79.3025 35.5352 79.4375 35.875 79.4375H46.125C46.4648 79.4375 46.7907 79.3025 47.031 79.0622C47.2713 78.822 47.4062 78.4961 47.4062 78.1562V71.0671C51.0796 70.2852 54.5777 68.8337 57.7254 66.7852L68.1792 77.2389C69.3824 78.4316 71.009 79.0991 72.7032 79.0954C74.3974 79.0917 76.0211 78.417 77.2191 77.2191C78.417 76.0211 79.0917 74.3974 79.0954 72.7032C79.0991 71.009 78.4316 69.3824 77.2389 68.1792L66.7852 57.7254C68.8337 54.5777 70.2852 51.0796 71.0671 47.4062H78.1562ZM75.4272 75.4272C75.0703 75.7842 74.6465 76.0674 74.1801 76.2606C73.7137 76.4538 73.2138 76.5532 72.709 76.5532C72.2042 76.5532 71.7043 76.4538 71.2379 76.2606C70.7715 76.0674 70.3478 75.7842 69.9908 75.4272L45.4575 50.8951C44.8616 50.3 44.1538 49.8288 43.3749 49.5086C42.596 49.1884 41.7614 49.0256 40.9193 49.0296C40.6521 49.0295 40.3851 49.0453 40.1198 49.077C38.4575 49.2766 36.7716 49.0657 35.2098 48.4627C33.6479 47.8596 32.2578 46.8829 31.161 45.6179C30.0642 44.353 29.2943 42.8384 28.9186 41.2069C28.543 39.5753 28.573 37.8766 29.0062 36.2594L34.6578 41.9123C34.898 42.1525 35.2239 42.2876 35.5637 42.2877H41C41.3398 42.2877 41.6657 42.1527 41.906 41.9124C42.1463 41.6721 42.2812 41.3462 42.2812 41.0064V35.5637C42.2812 35.2239 42.1461 34.898 41.9058 34.6578L36.2594 29.0062C37.8763 28.5741 39.5744 28.5448 41.2052 28.9209C42.8361 29.297 44.3499 30.0671 45.6142 31.1637C46.8784 32.2604 47.8547 33.6502 48.4575 35.2115C49.0603 36.7728 49.2712 38.4581 49.0719 40.1198C48.9482 41.0892 49.0478 42.0741 49.3629 42.9991C49.678 43.9242 50.2003 44.7651 50.89 45.4575L75.4272 69.9908C75.7842 70.3478 76.0674 70.7715 76.2606 71.2379C76.4538 71.7043 76.5532 72.2042 76.5532 72.709C76.5532 73.2138 76.4538 73.7137 76.2606 74.1801C76.0674 74.6465 75.7842 75.0703 75.4272 75.4272ZM52.7068 43.6522C52.2923 43.2333 51.9791 42.7252 51.7913 42.1667C51.6034 41.6082 51.5458 41.0141 51.6228 40.4298C51.8974 38.1524 51.5551 35.8431 50.6317 33.7433C49.7082 31.6434 48.2376 29.8303 46.3736 28.4933C44.5096 27.1563 42.3207 26.3447 40.0356 26.1433C37.7506 25.9419 35.4534 26.358 33.3843 27.3483C33.1996 27.4369 33.0389 27.5685 32.9156 27.7321C32.7923 27.8956 32.71 28.0864 32.6756 28.2883C32.6412 28.4902 32.6558 28.6974 32.718 28.8925C32.7802 29.0877 32.8883 29.2651 33.0332 29.4098L39.7188 36.0941V39.7188H36.0941L29.4098 33.0332C29.2651 32.8883 29.0877 32.7802 28.8925 32.718C28.6974 32.6558 28.4902 32.6412 28.2883 32.6756C28.0864 32.71 27.8956 32.7923 27.7321 32.9156C27.5685 33.0389 27.4369 33.1996 27.3483 33.3843C26.3583 35.4528 25.9422 37.7493 26.1433 40.0337C26.3445 42.3181 27.1555 44.5065 28.4917 46.3702C29.8279 48.2339 31.6402 49.7045 33.7391 50.6283C35.8381 51.5521 38.1466 51.8951 40.4234 51.6216C41.0077 51.5448 41.6019 51.6026 42.1604 51.7907C42.7189 51.9788 43.227 52.2922 43.6458 52.7068L50.2365 59.2962C45.8825 61.4958 40.8871 62.0717 36.1468 60.9207C31.4065 59.7696 27.2315 56.9669 24.3711 53.0156C21.5107 49.0642 20.152 44.2227 20.5389 39.36C20.9259 34.4973 23.0331 29.9317 26.4824 26.4824C29.9317 23.0331 34.4973 20.9259 39.36 20.5389C44.2227 20.152 49.0642 21.5107 53.0156 24.3711C56.9669 27.2315 59.7696 31.4065 60.9207 36.1468C62.0717 40.8871 61.4958 45.8825 59.2962 50.2365L52.7068 43.6522ZM68.7455 45.9149C68.1276 49.4511 66.8339 52.8352 64.935 55.8817L61.1887 52.1353C63.8766 47.2645 64.7155 41.587 63.5511 36.147C62.3868 30.707 59.2974 25.8702 54.8513 22.5264C50.4051 19.1825 44.9011 17.5564 39.3516 17.9471C33.8021 18.3378 28.5802 20.719 24.6464 24.6528C20.7126 28.5867 18.3314 33.8085 17.9407 39.358C17.55 44.9075 19.1761 50.4115 22.52 54.8577C25.8638 59.3038 30.7006 62.3932 36.1406 63.5575C41.5806 64.7219 47.2581 63.883 52.1289 61.1951L55.8753 64.9414C52.8288 66.8403 49.4447 68.134 45.9085 68.7519C45.6118 68.8027 45.3425 68.9565 45.1478 69.1861C44.9531 69.4157 44.8454 69.7065 44.8438 70.0075V76.875H37.1562V70.0075C37.1561 69.7054 37.0491 69.413 36.8543 69.1821C36.6595 68.9512 36.3893 68.7965 36.0915 68.7455C32.0498 68.038 28.2137 66.4482 24.8562 64.0894C24.6095 63.916 24.3095 63.8352 24.0091 63.8612C23.7086 63.8872 23.427 64.0184 23.2137 64.2316L18.3552 69.0812L12.9253 63.6512L17.7748 58.7927C17.988 58.5795 18.1192 58.2978 18.1452 57.9973C18.1712 57.6969 18.0904 57.3969 17.917 57.1502C15.5573 53.7908 13.9675 49.9525 13.2609 45.9085C13.2097 45.6096 13.0541 45.3386 12.8219 45.1436C12.5896 44.9487 12.2957 44.8424 11.9925 44.8438H5.125V37.1562H11.9925C12.2946 37.1561 12.587 37.0491 12.8179 36.8543C13.0488 36.6595 13.2035 36.3893 13.2545 36.0915C13.962 32.0498 15.5518 28.2137 17.9106 24.8562C18.084 24.6095 18.1648 24.3095 18.1388 24.0091C18.1128 23.7086 17.9816 23.427 17.7684 23.2137L12.9188 18.3552L18.3488 12.9253L23.2073 17.7748C23.4206 17.988 23.7022 18.1192 24.0026 18.1452C24.3031 18.1712 24.6031 18.0904 24.8498 17.917C28.2092 15.5573 32.0475 13.9675 36.0915 13.2609C36.3904 13.2097 36.6614 13.0541 36.8564 12.8219C37.0513 12.5896 37.1576 12.2957 37.1562 11.9925V5.125H44.8438V11.9925C44.8439 12.2946 44.9509 12.587 45.1457 12.8179C45.3405 13.0488 45.6107 13.2035 45.9085 13.2545C49.9525 13.9611 53.7908 15.5509 57.1502 17.9106C57.3969 18.084 57.6969 18.1648 57.9973 18.1388C58.2978 18.1128 58.5795 17.9816 58.7927 17.7684L63.6512 12.9188L69.0812 18.3488L64.2316 23.2073C64.0184 23.4206 63.8872 23.7022 63.8612 24.0026C63.8352 24.3031 63.916 24.6031 64.0894 24.8498C66.4491 28.2092 68.0389 32.0475 68.7455 36.0915C68.7965 36.3893 68.9512 36.6595 69.1821 36.8543C69.413 37.0491 69.7054 37.1561 70.0075 37.1562H76.875V44.8438H70.0075C69.7054 44.8439 69.413 44.9509 69.1821 45.1457C68.9512 45.3405 68.7965 45.6107 68.7455 45.9085V45.9149Z" fill="#111F52"/>
<path d="M49.154 47.3422C49.0358 47.2198 48.8944 47.1222 48.7381 47.0551C48.5818 46.9879 48.4137 46.9526 48.2436 46.9511C48.0734 46.9496 47.9047 46.982 47.7473 47.0465C47.5898 47.1109 47.4467 47.206 47.3264 47.3263C47.2061 47.4466 47.111 47.5897 47.0466 47.7471C46.9822 47.9046 46.9497 48.0733 46.9512 48.2434C46.9527 48.4136 46.988 48.5817 47.0552 48.738C47.1223 48.8943 47.22 49.0357 47.3423 49.1539L48.2482 50.0597C48.4898 50.2931 48.8135 50.4223 49.1494 50.4193C49.4853 50.4164 49.8067 50.2817 50.0442 50.0441C50.2818 49.8066 50.4165 49.4852 50.4195 49.1493C50.4224 48.8133 50.2932 48.4897 50.0599 48.248L49.154 47.3422Z" fill="#3E7863"/>
<path d="M67.2735 69.085C67.5151 69.3184 67.8388 69.4476 68.1747 69.4447C68.5106 69.4417 68.832 69.307 69.0696 69.0694C69.3071 68.8319 69.4419 68.5105 69.4448 68.1746C69.4477 67.8386 69.3186 67.515 69.0852 67.2734L53.6845 51.8715C53.4441 51.631 53.1181 51.496 52.7781 51.496C52.4381 51.496 52.112 51.631 51.8716 51.8715C51.6312 52.1119 51.4961 52.4379 51.4961 52.7779C51.4961 53.1179 51.6312 53.444 51.8716 53.6844L67.2735 69.085Z" fill="#3E7863"/>
<path d="M71.8041 73.6155C72.0457 73.8489 72.3694 73.9781 72.7053 73.9751C73.0413 73.9722 73.3626 73.8375 73.6002 73.5999C73.8377 73.3624 73.9725 73.041 73.9754 72.7051C73.9783 72.3691 73.8492 72.0455 73.6158 71.8038L72.7099 70.8967C72.4695 70.6563 72.1434 70.5212 71.8034 70.5212C71.4635 70.5212 71.1374 70.6563 70.897 70.8967C70.6565 71.1371 70.5215 71.4632 70.5215 71.8032C70.5215 72.1432 70.6565 72.4693 70.897 72.7097L71.8041 73.6155Z" fill="#3E7863"/>
</svg>
