<svg width="110" height="110" viewBox="0 0 110 110" fill="none" xmlns="http://www.w3.org/2000/svg">
<circle cx="55" cy="55" r="55" fill="#CDEDF4"/>
<g clip-path="url(#clip0_1559_4670)">
<path d="M54.9993 46.042C54.049 46.042 53.1376 46.4195 52.4656 47.0915C51.7935 47.7635 51.416 48.675 51.416 49.6253V71.1253C51.416 72.0757 51.7935 72.9871 52.4656 73.6591C53.1376 74.3311 54.049 74.7087 54.9993 74.7087C55.9497 74.7087 56.8611 74.3311 57.5331 73.6591C58.2052 72.9871 58.5827 72.0757 58.5827 71.1253V49.6253C58.5827 48.675 58.2052 47.7635 57.5331 47.0915C56.8611 46.4195 55.9497 46.042 54.9993 46.042Z" fill="#426871"/>
<path d="M54.2829 35.3633C54.0583 35.4023 53.8409 35.4748 53.6379 35.5783C53.4086 35.6573 53.1906 35.7657 52.9893 35.9008L52.4554 36.3308C51.7892 37.0101 51.416 37.9235 51.416 38.875C51.416 39.8264 51.7892 40.7399 52.4554 41.4191C52.6251 41.5724 52.8034 41.7159 52.9893 41.8491C53.1906 41.9842 53.4086 42.0926 53.6379 42.1716C53.8409 42.2751 54.0583 42.3476 54.2829 42.3866C54.5199 42.4266 54.7593 42.4506 54.9995 42.4583C55.7113 42.4624 56.4081 42.2545 57.0012 41.8611C57.5944 41.4676 58.0569 40.9064 58.3298 40.2491C58.6027 39.5918 58.6737 38.868 58.5337 38.1702C58.3937 37.4723 58.0491 36.832 57.5437 36.3308C57.1163 35.9218 56.5975 35.6207 56.0304 35.4525C55.4632 35.2842 54.8642 35.2536 54.2829 35.3633Z" fill="#426871"/>
</g>
<defs>
<clipPath id="clip0_1559_4670">
<rect width="8" height="40" fill="white" transform="translate(51 35)"/>
</clipPath>
</defs>
</svg>
