<svg width="100" height="100" viewBox="0 0 100 100" fill="none" xmlns="http://www.w3.org/2000/svg">
<rect width="100" height="100" rx="10" fill="#FFF5BF"/>
<g clip-path="url(#clip0_1559_4711)">
<path d="M49.1928 62.9551C46.751 62.9551 44.7744 64.9742 44.7744 67.397C44.7744 69.7625 46.6929 71.8393 49.1928 71.8393C51.6927 71.8393 53.6692 69.7625 53.6692 67.397C53.6692 64.9742 51.6344 62.9551 49.1928 62.9551Z" fill="#C9B132"/>
<path d="M49.9491 29.3223C42.1005 29.3223 38.4961 33.9376 38.4961 37.0528C38.4961 39.3026 40.4146 40.3411 41.9842 40.3411C45.1237 40.3411 43.8447 35.8989 49.7746 35.8989C52.6814 35.8989 55.007 37.1681 55.007 39.8219C55.007 42.937 51.7513 44.7254 49.8328 46.3406C48.1467 47.7826 45.9377 50.1481 45.9377 55.1094C45.9377 58.1092 46.7516 58.9746 49.1351 58.9746C51.9837 58.9746 52.5651 57.7055 52.5651 56.6091C52.5651 53.6094 52.6232 51.8787 55.8208 49.3981C57.3905 48.1867 62.3319 44.2637 62.3319 38.8409C62.3319 33.4182 57.3905 29.3223 49.9491 29.3223Z" fill="#C9B132"/>
</g>
<defs>
<clipPath id="clip0_1559_4711">
<rect width="25" height="43" fill="white" transform="translate(38 29)"/>
</clipPath>
</defs>
</svg>
