<svg width="77" height="77" viewBox="0 0 77 77" fill="none" xmlns="http://www.w3.org/2000/svg">
<path d="M71.1062 12.8333L50.05 33.6394V12.8333H44.5115L24.3833 33.2489V0H0V77H77V12.8333H71.1062ZM71.8667 71.8667H5.13333V5.13333H19.25V39.7833H25.1498L44.9167 19.7341V39.7833H51.1352L71.8667 19.2981V71.8667Z" fill="#111F52"/>
<path d="M19.25 50.0501V51.3334H24.3833V50.0501V46.2001H19.25V50.0501Z" fill="#3E7863"/>
<path d="M24.3833 57.75H19.25V62.8833H24.3833V57.75Z" fill="#3E7863"/>
<path d="M32.084 50.0501V51.3334H37.2173V50.0501V46.2001H32.084V50.0501Z" fill="#3E7863"/>
<path d="M37.2173 57.75H32.084V62.8833H37.2173V57.75Z" fill="#3E7863"/>
<path d="M44.916 50.0501V51.3334H50.0493V50.0501V46.2001H44.916V50.0501Z" fill="#3E7863"/>
<path d="M50.0493 57.75H44.916V62.8833H50.0493V57.75Z" fill="#3E7863"/>
<path d="M62.8833 46.2001H57.75V51.3334H62.8833V46.2001Z" fill="#3E7863"/>
<path d="M62.8833 57.75H57.75V62.8833H62.8833V57.75Z" fill="#3E7863"/>
</svg>
