<svg width="80" height="80" viewBox="0 0 80 80" fill="none" xmlns="http://www.w3.org/2000/svg">
<g clip-path="url(#clip0_771_4238)">
<path d="M73.5242 20.5987C73.4831 18.4388 73.4439 16.3984 73.4439 14.4244C73.4439 12.8779 72.1906 11.6242 70.6437 11.6242C58.6682 11.6242 49.5504 8.18256 41.9502 0.793C40.863 -0.264357 39.1328 -0.263984 38.046 0.793C30.4466 8.18256 21.3303 11.6242 9.35546 11.6242C7.809 11.6242 6.55526 12.8779 6.55526 14.4244C6.55526 16.3987 6.51643 18.4399 6.47498 20.6002C6.09117 40.7004 5.56548 68.2287 39.0809 79.8458C39.3781 79.9488 39.688 80.0004 39.9979 80.0004C40.3078 80.0004 40.6181 79.9488 40.9149 79.8458C74.433 68.2283 73.908 40.6993 73.5242 20.5987ZM39.9983 74.2286C11.2544 63.7868 11.689 40.9128 12.0746 20.7069C12.0978 19.4943 12.1202 18.3189 12.1359 17.1667C23.3516 16.6933 32.3205 13.2946 39.9983 6.60623C47.6768 13.2946 56.6472 16.6937 67.8637 17.1667C67.8794 18.3186 67.9018 19.4931 67.9249 20.7051C68.3102 40.9117 68.7444 63.7864 39.9983 74.2286Z" fill="#111F52"/>
<path d="M49.6408 30.2728L36.1255 43.7873L30.3582 38.02C29.2646 36.9268 27.4915 36.9268 26.3983 38.02C25.3047 39.1139 25.3047 40.8867 26.3983 41.9802L34.1455 49.7275C34.6921 50.2741 35.409 50.5474 36.1255 50.5474C36.842 50.5474 37.5588 50.2741 38.1054 49.7275L53.6002 34.233C54.6942 33.1394 54.6942 31.3663 53.6006 30.2731C52.5074 29.1796 50.7343 29.1792 49.6408 30.2728Z" fill="#3E7863"/>
</g>
<defs>
<clipPath id="clip0_771_4238">
<rect width="80" height="80" fill="white"/>
</clipPath>
</defs>
</svg>
