<svg width="52" height="49" viewBox="0 0 52 49" fill="none" xmlns="http://www.w3.org/2000/svg">
<path d="M48.6668 12.777C48.1208 10.8455 46.5205 9.32287 44.491 8.80276C40.7834 7.8374 25.9528 7.8374 25.9528 7.8374C25.9528 7.8374 11.1227 7.8374 7.41514 8.76616C5.42471 9.28572 3.78534 10.8458 3.23937 12.777C2.26367 16.3049 2.26367 23.6214 2.26367 23.6214C2.26367 23.6214 2.26367 30.9747 3.23937 34.4657C3.78592 36.397 5.38567 37.9196 7.41543 38.4397C11.1618 39.4053 25.9534 39.4053 25.9534 39.4053C25.9534 39.4053 40.7834 39.4053 44.491 38.4766C46.5208 37.9567 48.1208 36.4341 48.6674 34.5029C49.6428 30.9747 49.6428 23.6585 49.6428 23.6585C49.6428 23.6585 49.6818 16.3049 48.6668 12.777ZM21.231 30.3805V16.8622L33.5634 23.6214L21.231 30.3805Z" fill="#111F52"/>
</svg>
