<svg width="138" height="138" viewBox="0 0 138 138" fill="none" xmlns="http://www.w3.org/2000/svg">
<path d="M66.4019 4.5C67.5566 2.5 70.4434 2.5 71.5981 4.5L126.158 99C127.312 101 125.869 103.5 123.56 103.5H14.4404C12.131 103.5 10.6876 101 11.8423 99L66.4019 4.5Z" fill="#FFD1D1"/>
<g clip-path="url(#clip0_1559_4685)">
<path d="M68.9993 51.041C68.049 51.041 67.1376 51.4185 66.4656 52.0906C65.7935 52.7626 65.416 53.674 65.416 54.6243V76.1244C65.416 77.0747 65.7935 77.9861 66.4656 78.6582C67.1376 79.3302 68.049 79.7077 68.9993 79.7077C69.9497 79.7077 70.8611 79.3302 71.5331 78.6582C72.2052 77.9861 72.5827 77.0747 72.5827 76.1244V54.6243C72.5827 53.674 72.2052 52.7626 71.5331 52.0906C70.8611 51.4185 69.9497 51.041 68.9993 51.041Z" fill="#C26464"/>
<path d="M68.2829 40.3633C68.0583 40.4023 67.8409 40.4748 67.6379 40.5783C67.4086 40.6573 67.1906 40.7657 66.9893 40.9008L66.4554 41.3308C65.7892 42.0101 65.416 42.9235 65.416 43.875C65.416 44.8264 65.7892 45.7399 66.4554 46.4191C66.6251 46.5724 66.8034 46.7159 66.9893 46.8491C67.1906 46.9842 67.4086 47.0926 67.6379 47.1716C67.8409 47.2751 68.0583 47.3476 68.2829 47.3866C68.5199 47.4266 68.7593 47.4506 68.9995 47.4583C69.7113 47.4624 70.4081 47.2545 71.0012 46.8611C71.5944 46.4676 72.0569 45.9064 72.3298 45.2491C72.6027 44.5918 72.6737 43.868 72.5337 43.1702C72.3937 42.4723 72.0491 41.832 71.5437 41.3308C71.1163 40.9218 70.5975 40.6207 70.0304 40.4525C69.4632 40.2842 68.8642 40.2536 68.2829 40.3633V40.3633Z" fill="#C26464"/>
</g>
<defs>
<clipPath id="clip0_1559_4685">
<rect width="8" height="40" fill="white" transform="translate(65 40)"/>
</clipPath>
</defs>
</svg>
