<svg width="38" height="39" viewBox="0 0 38 39" fill="none" xmlns="http://www.w3.org/2000/svg">
<g clip-path="url(#clip0_376_329)">
<path d="M26.491 0.677246C26.5781 0.677246 26.6652 0.677246 26.7572 0.677246C26.9708 3.31614 25.9635 5.28791 24.7394 6.71581C23.5383 8.13384 21.8935 9.50915 19.2332 9.30047C19.0558 6.69937 20.0647 4.87384 21.2872 3.44923C22.4209 2.12157 24.4995 0.940149 26.491 0.677246Z" fill="#fff"/>
<path d="M34.5438 28.1442C34.5438 28.1705 34.5438 28.1935 34.5438 28.2181C33.7961 30.4824 32.7297 32.4229 31.4283 34.2238C30.2404 35.8587 28.7845 38.0589 26.1851 38.0589C23.9389 38.0589 22.4469 36.6146 20.1449 36.5752C17.7097 36.5357 16.3706 37.7829 14.1441 38.0967C13.8894 38.0967 13.6347 38.0967 13.385 38.0967C11.75 37.8601 10.4306 36.5653 9.46935 35.3987C6.63492 31.9513 4.44461 27.4984 4.03711 21.8C4.03711 21.2413 4.03711 20.6843 4.03711 20.1256C4.20964 16.0473 6.19127 12.7315 8.82524 11.1245C10.2153 10.27 12.1263 9.54212 14.2542 9.86747C15.1661 10.0088 16.0978 10.321 16.9144 10.6299C17.6884 10.9273 18.6562 11.4547 19.5731 11.4268C20.1942 11.4087 20.812 11.085 21.438 10.8566C23.2718 10.1945 25.0694 9.43532 27.4388 9.79188C30.2864 10.2224 32.3074 11.4876 33.5562 13.4397C31.1474 14.9727 29.243 17.283 29.5683 21.2282C29.8575 24.8119 31.941 26.9085 34.5438 28.1442Z" fill="#fff"/>
</g>
<defs>
<clipPath id="clip0_376_329">
<rect width="37.4194" height="37.4194" fill="white" transform="translate(0.580078 0.677246)"/>
</clipPath>
</defs>
</svg>
