<svg width="38" height="39" viewBox="0 0 38 39" fill="none" xmlns="http://www.w3.org/2000/svg">
<g clip-path="url(#clip0_376_270)">
<path d="M28.3188 0.890625H9.60055C4.4523 0.890625 0.226562 5.11636 0.226562 10.2944V29.0126C0.226562 34.1608 4.4523 38.3866 9.60055 38.3866H28.3188C33.4968 38.3866 37.7225 34.1608 37.7225 28.9828V10.2944C37.7225 5.11636 33.4968 0.890625 28.3188 0.890625ZM24.0038 19.6386H20.4625V31.2445H15.9987V19.6386H13.618V14.8772H15.7011V12.8536C15.7011 10.9491 16.6534 7.94343 20.6708 7.94343H24.3311V11.9013H21.7421C21.3255 11.9013 20.7601 12.1692 20.7601 13.0917V14.8772H24.4204L24.0038 19.6386Z" fill="#fff"/>
</g>
<defs>
<clipPath id="clip0_376_270">
<rect width="37.4959" height="37.4959" fill="white" transform="translate(0.226562 0.890625)"/>
</clipPath>
</defs>
</svg>
