<svg width="37" height="37" viewBox="0 0 37 37" fill="none" xmlns="http://www.w3.org/2000/svg">
<path d="M7.66016 37H29.3398C31.133 37 32.5918 35.5412 32.5918 33.748V10.8398H25.0039C23.2107 10.8398 21.752 9.38109 21.752 7.58789V0H7.66016C5.86696 0 4.4082 1.45875 4.4082 3.25195V33.748C4.4082 35.5412 5.86696 37 7.66016 37ZM11.9961 15.248H25.0039C25.6031 15.248 26.0879 15.7329 26.0879 16.332C26.0879 16.9312 25.6031 17.416 25.0039 17.416H11.9961C11.3969 17.416 10.9121 16.9312 10.9121 16.332C10.9121 15.7329 11.3969 15.248 11.9961 15.248ZM11.9961 19.584H25.0039C25.6031 19.584 26.0879 20.0688 26.0879 20.668C26.0879 21.2671 25.6031 21.752 25.0039 21.752H11.9961C11.3969 21.752 10.9121 21.2671 10.9121 20.668C10.9121 20.0688 11.3969 19.584 11.9961 19.584ZM11.9961 23.9199H25.0039C25.6031 23.9199 26.0879 24.4048 26.0879 25.0039C26.0879 25.6031 25.6031 26.0879 25.0039 26.0879H11.9961C11.3969 26.0879 10.9121 25.6031 10.9121 25.0039C10.9121 24.4048 11.3969 23.9199 11.9961 23.9199ZM11.9961 28.2559H20.668C21.2671 28.2559 21.752 28.7407 21.752 29.3398C21.752 29.939 21.2671 30.4238 20.668 30.4238H11.9961C11.3969 30.4238 10.9121 29.939 10.9121 29.3398C10.9121 28.7407 11.3969 28.2559 11.9961 28.2559Z" fill="#fff"/>
<path d="M25.0039 8.67186H31.9567L23.9199 0.635132V7.58788C23.9199 8.18595 24.4058 8.67186 25.0039 8.67186Z" fill="#fff"/>
</svg>
