<svg width="39" height="39" viewBox="0 0 39 39" fill="none" xmlns="http://www.w3.org/2000/svg">
<g clip-path="url(#clip0_368_547)">
<path d="M30.9359 7.82861C30.4232 7.82861 30.0059 8.23704 30.0059 8.73892C30.0059 9.24079 30.4232 9.64922 30.9359 9.64922C31.4488 9.64922 31.866 9.24086 31.866 8.73892C31.866 8.23697 31.4488 7.82861 30.9359 7.82861Z" fill="#111F52"/>
<path d="M19.8002 11.5684C15.2537 11.5684 11.5547 15.1886 11.5547 19.6385C11.5547 24.0883 15.2537 27.7087 19.8002 27.7087C24.3469 27.7087 28.0459 24.0884 28.0459 19.6386C28.0459 15.1887 24.3469 11.5684 19.8002 11.5684Z" fill="#111F52"/>
<path d="M28.4532 0.890625H11.1469C5.3559 0.890625 0.644531 5.50175 0.644531 11.1696V28.1076C0.644531 33.7755 5.3559 38.3866 11.1469 38.3866H28.4532C34.2443 38.3866 38.9556 33.7754 38.9556 28.1076V11.1696C38.9556 5.50175 34.2443 0.890625 28.4532 0.890625ZM19.8001 29.923C14.0059 29.923 9.29213 25.3095 9.29213 19.6386C9.29213 13.9677 14.006 9.35431 19.8001 9.35431C25.5942 9.35431 30.3081 13.9678 30.3081 19.6386C30.3081 25.3094 25.5942 29.923 19.8001 29.923ZM30.9365 11.8638C29.1762 11.8638 27.744 10.4621 27.744 8.73914C27.744 7.01623 29.1762 5.61445 30.9365 5.61445C32.6969 5.61445 34.1291 7.01616 34.1291 8.73907C34.1291 10.462 32.6969 11.8638 30.9365 11.8638Z" fill="#111F52"/>
</g>
<defs>
<clipPath id="clip0_368_547">
<rect width="38.3111" height="37.4959" fill="white" transform="translate(0.644531 0.890625)"/>
</clipPath>
</defs>
</svg>
