<svg width="38" height="39" viewBox="0 0 38 39" fill="none" xmlns="http://www.w3.org/2000/svg">
<g clip-path="url(#clip0_376_289)">
<path d="M28.3609 0.905273H9.6873C4.5134 0.905273 0.291016 5.12766 0.291016 10.3016V29.0049C0.291016 34.1491 4.5134 38.3715 9.6873 38.3715H28.3907C33.5646 38.3715 37.787 34.1491 37.787 28.9752V10.3016C37.7572 5.12766 33.5348 0.905273 28.3609 0.905273ZM12.7798 31.2351H7.42744V15.7728H12.7798V31.2351ZM10.0739 13.394C8.55737 13.394 7.33823 12.1749 7.33823 10.6584C7.33823 9.14189 8.55737 7.92275 10.0739 7.92275C11.5903 7.92275 12.8095 9.14189 12.8095 10.6584C12.7798 12.1749 11.5606 13.394 10.0739 13.394ZM30.6505 31.2351H30.6208H26.1605V23.7418C26.1605 21.928 25.9227 19.6086 23.4546 19.6086C20.9272 19.6086 20.5109 21.5712 20.5109 23.6229V31.2351H16.0506V15.7728H20.2135V17.8543H20.3325C20.9866 16.6649 22.5031 15.7431 24.8819 15.7431C29.7882 15.7431 30.6505 18.5679 30.6505 22.7606V31.2351Z" fill="#fff"/>
</g>
<defs>
<clipPath id="clip0_376_289">
<rect width="37.4959" height="37.4959" fill="white" transform="translate(0.291016 0.890625)"/>
</clipPath>
</defs>
</svg>
