<svg width="45" height="45" viewBox="0 0 45 45" fill="none" xmlns="http://www.w3.org/2000/svg">
<path fill-rule="evenodd" clip-rule="evenodd" d="M3.75 9.375C3.75 6.26841 6.26841 3.75 9.375 3.75H35.625C38.7317 3.75 41.25 6.26841 41.25 9.375V35.625C41.25 38.7317 38.7317 41.25 35.625 41.25H9.375C6.26841 41.25 3.75 38.7317 3.75 35.625V9.375ZM16.875 13.125C16.875 12.0895 16.0355 11.25 15 11.25C13.9645 11.25 13.125 12.0895 13.125 13.125C13.125 18.3027 17.3223 22.5 22.5 22.5C27.6776 22.5 31.875 18.3027 31.875 13.125C31.875 12.0895 31.0356 11.25 30 11.25C28.9644 11.25 28.125 12.0895 28.125 13.125C28.125 16.2316 25.6067 18.75 22.5 18.75C19.3933 18.75 16.875 16.2316 16.875 13.125Z" fill="#fff"/>
</svg>
