<svg width="40" height="41" viewBox="0 0 40 41" fill="none" xmlns="http://www.w3.org/2000/svg">
<g clip-path="url(#clip0_368_528)">
<path d="M39.9413 7.66217C38.456 8.31371 36.8733 8.74558 35.2233 8.95527C36.9208 7.94176 38.2164 6.3491 38.8255 4.42942C37.2428 5.37303 35.4954 6.03955 33.6331 6.41151C32.1303 4.81136 29.9885 3.82031 27.6519 3.82031C23.1185 3.82031 19.4689 7.49991 19.4689 12.0108C19.4689 12.6598 19.5238 13.2839 19.6586 13.878C12.8511 13.546 6.82747 10.2833 2.78092 5.31312C2.07445 6.53882 1.66006 7.94176 1.66006 9.45204C1.66006 12.2879 3.12042 14.8017 5.29722 16.257C3.98165 16.2321 2.69105 15.8501 1.59765 15.2485C1.59765 15.2735 1.59765 15.3059 1.59765 15.3384C1.59765 19.3176 4.43598 22.6227 8.15802 23.3841C7.4915 23.5663 6.76506 23.6537 6.01117 23.6537C5.48694 23.6537 4.95772 23.6237 4.46095 23.5139C5.52189 26.7566 8.53247 29.1406 12.1122 29.218C9.3263 31.3973 5.789 32.7104 1.95962 32.7104C1.28811 32.7104 0.644054 32.6804 0 32.598C3.62717 34.9371 7.92586 36.2726 12.5615 36.2726C27.6294 36.2726 35.8673 23.791 35.8673 12.9719C35.8673 12.6099 35.8548 12.2604 35.8374 11.9134C37.4625 10.7601 38.828 9.31974 39.9413 7.66217Z" fill="#fff"/>
</g>
<defs>
<clipPath id="clip0_368_528">
<rect width="39.9413" height="39.9413" fill="white" transform="translate(0 0.0756836)"/>
</clipPath>
</defs>
</svg>
