<svg width="18" height="16" viewBox="0 0 18 16" fill="none" xmlns="http://www.w3.org/2000/svg">
<g clip-path="url(#clip0_1128_8384)">
<path d="M17.6909 4.3335C17.4462 4.577 17.0505 4.57606 16.807 4.33141L14.625 2.13884V15.375C14.625 15.7202 14.3452 16 14 16C13.6548 16 13.375 15.7202 13.375 15.375V2.13881L11.193 4.33144C10.9495 4.57609 10.5538 4.57703 10.3091 4.33353C10.0644 4.09 10.0635 3.69428 10.307 3.44963L13.557 0.183875C13.5572 0.183657 13.5574 0.1835 13.5576 0.183312C13.8011 -0.0607185 14.1981 -0.0615005 14.4424 0.183281C14.4426 0.183499 14.4428 0.183656 14.443 0.183844L17.693 3.44959C17.9364 3.69422 17.9356 4.08997 17.6909 4.3335Z" fill="white" fill-opacity="0.5"/>
</g>
<g clip-path="url(#clip1_1128_8384)">
<path d="M7.69087 11.6665C7.44622 11.423 7.0505 11.4239 6.807 11.6686L4.625 13.8612V0.625C4.625 0.279813 4.34519 0 4 0C3.65481 0 3.375 0.279813 3.375 0.625V13.8612L1.193 11.6686C0.949498 11.4239 0.553779 11.423 0.309123 11.6665C0.0644353 11.91 0.0635292 12.3057 0.306998 12.5504L3.557 15.8161C3.55719 15.8163 3.5574 15.8165 3.55759 15.8167C3.80109 16.0607 4.19809 16.0615 4.4424 15.8167C4.44259 15.8165 4.44281 15.8163 4.443 15.8162L7.693 12.5504C7.93643 12.3058 7.93559 11.91 7.69087 11.6665Z" fill="white"/>
</g>
<defs>
<clipPath id="clip0_1128_8384">
<rect width="8" height="16" fill="white" transform="matrix(1 0 0 -1 10 16)"/>
</clipPath>
<clipPath id="clip1_1128_8384">
<rect width="8" height="16" fill="white"/>
</clipPath>
</defs>
</svg>
