<svg width="21" height="22" viewBox="0 0 21 22" fill="none" xmlns="http://www.w3.org/2000/svg">
<path d="M17.0625 21.3125C16.9279 21.3124 16.7967 21.2689 16.6865 21.1881L10.5 16.6519L4.31353 21.1894C4.21511 21.2615 4.09969 21.3039 3.97984 21.3121C3.85999 21.3202 3.74032 21.2937 3.63385 21.2355C3.52739 21.1773 3.43821 21.0896 3.37604 20.9819C3.31386 20.8743 3.28108 20.7508 3.28125 20.625V3.9875C3.28212 3.11257 3.61427 2.27373 4.20482 1.65505C4.79537 1.03638 5.59609 0.68841 6.43125 0.6875H14.5688C15.4039 0.68841 16.2046 1.03638 16.7952 1.65505C17.3857 2.27373 17.7179 3.11257 17.7188 3.9875V20.625C17.7188 20.8073 17.6496 20.9822 17.5265 21.1111C17.4035 21.2401 17.2365 21.3125 17.0625 21.3125ZM10.5 15.125C10.6346 15.1251 10.7658 15.1686 10.876 15.2494L16.4063 19.3043V3.9875C16.4063 3.47696 16.2127 2.98733 15.8681 2.62632C15.5235 2.26531 15.0561 2.0625 14.5688 2.0625H6.43125C5.94392 2.0625 5.47654 2.26531 5.13194 2.62632C4.78734 2.98733 4.59375 3.47696 4.59375 3.9875V19.3043L10.124 15.2481C10.2343 15.1677 10.3656 15.1247 10.5 15.125Z" fill="black"/>
</svg>
