<svg width="56" height="61" viewBox="0 0 56 61" fill="none" xmlns="http://www.w3.org/2000/svg">
<path d="M49.8945 25.7758H49.7461V22.1403C49.7461 10.462 40.2791 0.994873 28.6007 0.994873C16.9223 0.994873 7.45525 10.462 7.45525 22.1403V25.7758H6.56497C3.30038 25.7758 0.777808 28.6693 0.777808 32.0082V41.2825C0.695582 44.5185 3.25238 47.2085 6.48843 47.2908C6.51399 47.2915 6.53941 47.2919 6.56497 47.2922H12.0553C12.833 47.2557 13.4338 46.5955 13.3972 45.8178C13.3959 45.7898 13.3938 45.7619 13.3908 45.734V27.5564C13.3908 26.6661 12.8715 25.7757 12.0553 25.7757H10.423V22.1402C10.423 12.101 18.5615 3.96251 28.6007 3.96251C38.6398 3.96251 46.7783 12.101 46.7783 22.1402V25.7757H45.146C44.3299 25.7757 43.8105 26.666 43.8105 27.5564V45.734C43.7277 46.5081 44.2881 47.2029 45.0622 47.2857C45.0901 47.2886 45.118 47.2908 45.146 47.292H46.8524L46.704 47.5146C44.4777 50.4734 40.9842 52.2064 37.2814 52.1888C36.4707 48.214 32.5912 45.6488 28.6164 46.4596C25.2174 47.1527 22.7666 50.1296 22.7392 53.5986C22.7799 57.6672 26.0899 60.944 30.1587 60.9437C32.1729 60.9111 34.0927 60.0846 35.5007 58.6437C36.4506 57.6709 37.073 56.4259 37.2814 55.0823C41.9184 55.0999 46.2914 52.9271 49.0782 49.221L50.488 47.1435C53.6783 46.921 55.6815 44.9177 55.6815 42.0241V32.7498C55.6817 29.5598 53.3075 25.7758 49.8945 25.7758ZM10.423 44.3244H6.56497C4.96733 44.2855 3.7037 42.959 3.74261 41.3613C3.74332 41.335 3.74431 41.3088 3.74559 41.2823V32.0081C3.74559 30.3016 4.93268 28.7435 6.56497 28.7435H10.423V44.3244V44.3244ZM33.3492 56.5665C32.5269 57.458 31.3716 57.9686 30.1588 57.9762C27.7449 57.9379 25.786 56.0116 25.7072 53.5987C25.7062 51.1811 27.6652 49.2204 30.0829 49.2194C32.5005 49.2185 34.4611 51.1775 34.4621 53.5951C34.4621 53.5963 34.4621 53.5976 34.4621 53.5987C34.5239 54.7003 34.12 55.7772 33.3492 56.5665ZM52.7139 42.0244C52.7139 44.0276 50.7848 44.3244 49.8945 44.3244H46.7783V28.7436H49.8945C51.5268 28.7436 52.7139 31.0436 52.7139 32.7501V42.0244Z" fill="white"/>
</svg>
