<svg width="19" height="19" viewBox="0 0 19 19" fill="none" xmlns="http://www.w3.org/2000/svg">
<g clip-path="url(#clip0_982_5596)">
<path d="M19 17.8125C19 18.4683 18.4683 19 17.8125 19H1.1875C0.531666 19 0 18.4683 0 17.8125C0 17.1567 0.531666 16.625 1.1875 16.625H17.8125C18.4683 16.625 19 17.1567 19 17.8125ZM8.66033 14.0506C8.89222 14.2825 9.19607 14.3985 9.5 14.3985C9.80385 14.3985 10.1079 14.2825 10.3397 14.0506L14.5471 9.8433C15.0108 9.37954 15.0108 8.62767 14.5471 8.16391C14.0833 7.70016 13.3314 7.70016 12.8677 8.16391L10.6875 10.3441V1.1875C10.6875 0.531666 10.1558 0 9.5 0C8.84417 0 8.3125 0.531666 8.3125 1.1875V10.3441L6.13232 8.16391C5.66857 7.70016 4.9167 7.70016 4.45294 8.16391C3.98918 8.62767 3.98918 9.37954 4.45294 9.8433L8.66033 14.0506Z" fill="#426871"/>
</g>
<defs>
<clipPath id="clip0_982_5596">
<rect width="19" height="19" fill="white"/>
</clipPath>
</defs>
</svg>
