<svg width="27" height="27" viewBox="0 0 27 27" fill="none" xmlns="http://www.w3.org/2000/svg">
<g clip-path="url(#clip0_316_8316)">
<path d="M26.7476 25.1953L19.8683 18.426C21.6697 16.4687 22.7766 13.8802 22.7766 11.0319C22.7757 4.93876 17.757 0 11.5656 0C5.37421 0 0.355469 4.93876 0.355469 11.0319C0.355469 17.125 5.37421 22.0638 11.5656 22.0638C14.2407 22.0638 16.6943 21.1385 18.6215 19.6002L25.5275 26.3963C25.864 26.7277 26.4103 26.7277 26.7468 26.3963C27.084 26.0648 27.084 25.5268 26.7476 25.1953ZM11.5656 20.3665C6.32701 20.3665 2.08031 16.1873 2.08031 11.0319C2.08031 5.87654 6.32701 1.69732 11.5656 1.69732C16.8042 1.69732 21.0509 5.87654 21.0509 11.0319C21.0509 16.1873 16.8042 20.3665 11.5656 20.3665Z" fill="#6C7492"/>
</g>
<defs>
<clipPath id="clip0_316_8316">
<rect width="26.6449" height="26.6449" fill="white" transform="translate(0.355469)"/>
</clipPath>
</defs>
</svg>
