<svg width="27" height="27" viewBox="0 0 27 27" fill="none" xmlns="http://www.w3.org/2000/svg">
<g clip-path="url(#clip0_374_278)">
<path d="M22.0121 14.2634C22.0121 13.8247 21.6563 13.469 21.2174 13.469C20.7786 13.469 20.4228 13.8247 20.4228 14.2634C20.4228 18.1502 17.2609 21.3121 13.3741 21.3121C9.4875 21.3121 6.32561 18.1502 6.32561 14.2634C6.32561 13.8247 5.96986 13.469 5.53097 13.469C5.09208 13.469 4.73633 13.8247 4.73633 14.2634C4.73633 18.7587 8.1877 22.4619 12.5795 22.8644V25.0036H9.63061C9.19172 25.0036 8.83597 25.3593 8.83597 25.7982C8.83597 26.2371 9.19172 26.5929 9.63061 26.5929H17.1178C17.5565 26.5929 17.9122 26.2371 17.9122 25.7982C17.9122 25.3593 17.5565 25.0036 17.1178 25.0036H14.1687V22.8644C18.5607 22.4621 22.0121 18.7587 22.0121 14.2634Z" fill="#6C7492"/>
<path d="M13.373 19.3515C16.1785 19.3515 18.461 17.0691 18.461 14.2635V5.03581C18.461 2.23048 16.1785 -0.052002 13.373 -0.052002C10.5676 -0.052002 8.28516 2.23048 8.28516 5.03581V14.2635C8.28516 17.0691 10.5676 19.3515 13.373 19.3515ZM9.87423 5.03581C9.87423 3.10664 11.4438 1.53728 13.373 1.53728C15.3021 1.53728 16.8717 3.10664 16.8717 5.03581V14.2635C16.8717 16.1927 15.3021 17.7623 13.373 17.7623C11.4438 17.7623 9.87423 16.1927 9.87423 14.2635V5.03581Z" fill="#6C7492"/>
</g>
<defs>
<clipPath id="clip0_374_278">
<rect width="26.6449" height="26.6449" fill="white"/>
</clipPath>
</defs>
</svg>
