<svg width="25" height="19" viewBox="0 0 25 19" fill="none" xmlns="http://www.w3.org/2000/svg">
<path d="M3.00078 0.49585C1.51843 0.49585 0.3125 1.70397 0.3125 3.18902C0.3125 4.67407 1.51843 5.88177 3.00078 5.88177C4.48314 5.88177 5.68906 4.67365 5.68906 3.1886C5.68906 1.70355 4.48314 0.49585 3.00078 0.49585ZM3.00078 4.6268C2.20908 4.6268 1.56519 3.98174 1.56519 3.1886C1.56519 2.39546 2.20908 1.75082 3.00078 1.75082C3.79248 1.75082 4.43637 2.39588 4.43637 3.18902C4.43637 3.98216 3.79248 4.6268 3.00078 4.6268Z" fill="black"/>
<path d="M7.67127 3.8165H24.0607C24.4064 3.8165 24.687 3.5358 24.687 3.18901C24.687 2.84222 24.4064 2.56152 24.0607 2.56152H7.67127C7.32511 2.56152 7.04492 2.84222 7.04492 3.18901C7.04492 3.5358 7.32511 3.8165 7.67127 3.8165Z" fill="black"/>
<path d="M3.00078 6.71851C1.51843 6.71851 0.3125 7.92663 0.3125 9.41167C0.3125 10.8967 1.51843 12.1044 3.00078 12.1044C4.48314 12.1044 5.68906 10.8963 5.68906 9.41126C5.68906 7.92621 4.48314 6.71851 3.00078 6.71851ZM3.00078 10.8495C2.20908 10.8495 1.56519 10.2044 1.56519 9.41126C1.56519 8.61811 2.20908 7.97306 3.00078 7.97306C3.79248 7.97306 4.43637 8.61811 4.43637 9.41126C4.43637 10.2044 3.79248 10.8495 3.00078 10.8495Z" fill="black"/>
<path d="M24.0607 8.78418H7.67127C7.32511 8.78418 7.04492 9.06488 7.04492 9.41167C7.04492 9.75846 7.32511 10.0392 7.67127 10.0392H24.0607C24.4064 10.0392 24.687 9.75846 24.687 9.41167C24.687 9.06488 24.4064 8.78418 24.0607 8.78418Z" fill="black"/>
<path d="M3.00078 12.9412C1.51843 12.9412 0.3125 14.1493 0.3125 15.6343C0.3125 17.1194 1.51843 18.3271 3.00078 18.3271C4.48314 18.3271 5.68906 17.119 5.68906 15.6339C5.68906 14.1489 4.48314 12.9412 3.00078 12.9412ZM3.00078 17.0721C2.20908 17.0721 1.56519 16.4271 1.56519 15.6339C1.56519 14.8408 2.20908 14.1961 3.00078 14.1961C3.79248 14.1961 4.43637 14.8412 4.43637 15.6343C4.43637 16.4275 3.79248 17.0721 3.00078 17.0721Z" fill="black"/>
<path d="M24.0607 15.0068H7.67127C7.32511 15.0068 7.04492 15.2879 7.04492 15.6343C7.04492 15.9807 7.32511 16.2618 7.67127 16.2618H24.0607C24.4064 16.2618 24.687 15.9807 24.687 15.6343C24.687 15.2879 24.4064 15.0068 24.0607 15.0068Z" fill="black"/>
</svg>
