<svg width="25" height="25" viewBox="0 0 25 25" fill="none" xmlns="http://www.w3.org/2000/svg">
<path d="M8.65398 1.92285H2.88466C2.08327 1.92285 1.40223 2.20333 0.841223 2.76413C0.280478 3.32503 0 4.00608 0 4.80752V10.5766C0 11.378 0.28032 12.059 0.841223 12.6198C1.40218 13.1805 2.08343 13.4611 2.88466 13.4611H6.25003C6.65054 13.4611 6.99116 13.6014 7.27164 13.8818C7.55212 14.162 7.6923 14.5027 7.6923 14.9035V15.384C7.6923 16.4458 7.31663 17.352 6.5655 18.1033C5.81431 18.8543 4.90794 19.2299 3.84607 19.2299H2.88466C2.62407 19.2299 2.3988 19.3253 2.20841 19.5155C2.01818 19.7057 1.92298 19.9311 1.92298 20.1915V22.1148C1.92298 22.3748 2.01818 22.6007 2.20841 22.7909C2.39895 22.9811 2.62402 23.0765 2.88466 23.0765H3.84613C4.88789 23.0765 5.88198 22.8734 6.82856 22.4679C7.77508 22.0623 8.59383 21.5138 9.28498 20.8226C9.97596 20.1314 10.5244 19.3128 10.93 18.3663C11.3356 17.4197 11.5384 16.4257 11.5384 15.3841V4.80731C11.5384 4.00586 11.258 3.32488 10.6972 2.76408C10.1364 2.20328 9.45516 1.92285 8.65398 1.92285Z" fill="#D4DDEC"/>
<path d="M24.1586 2.76413C23.5978 2.20333 22.9168 1.92285 22.1154 1.92285H16.3463C15.5449 1.92285 14.8638 2.20333 14.303 2.76413C13.7423 3.32509 13.4619 4.00608 13.4619 4.80752V10.5766C13.4619 11.378 13.7423 12.059 14.303 12.6198C14.8638 13.1805 15.5449 13.4611 16.3463 13.4611H19.7116C20.1121 13.4611 20.453 13.6014 20.7334 13.8818C21.0136 14.1621 21.1541 14.5027 21.1541 14.9035V15.384C21.1541 16.4458 20.7784 17.352 20.0271 18.1033C19.276 18.8543 18.3699 19.2299 17.3079 19.2299H16.3463C16.0859 19.2299 15.8604 19.3253 15.6702 19.5155C15.4799 19.7057 15.3846 19.9311 15.3846 20.1915V22.1148C15.3846 22.3748 15.4799 22.6007 15.6702 22.7909C15.8603 22.9811 16.0858 23.0765 16.3463 23.0765H17.3079C18.3495 23.0765 19.3435 22.8734 20.2902 22.4679C21.2366 22.0623 22.0552 21.5138 22.7464 20.8226C23.4376 20.1314 23.9863 19.3126 24.3917 18.3663C24.7972 17.4199 25.0001 16.4257 25.0001 15.3841V4.80731C25 4.00586 24.7198 3.32488 24.1586 2.76413Z" fill="#D4DDEC"/>
</svg>
