<svg width="19" height="20" viewBox="0 0 19 20" fill="none" xmlns="http://www.w3.org/2000/svg">
<path d="M15.5434 13.4529C14.5355 13.4529 13.6275 13.8667 12.9972 14.525L7.32858 11.187C7.47992 10.8186 7.56385 10.4185 7.56385 9.99998C7.56385 9.58128 7.47992 9.1812 7.32858 8.813L12.9972 5.47484C13.6275 6.13311 14.5355 6.54708 15.5434 6.54708C17.442 6.54708 18.9865 5.07857 18.9865 3.27346C18.9865 1.46835 17.442 0 15.5434 0C13.6448 0 12.1002 1.4685 12.1002 3.27361C12.1002 3.69216 12.1843 4.09225 12.3355 4.46059L6.66704 7.7986C6.0368 7.14034 5.12875 6.72637 4.12087 6.72637C2.22228 6.72637 0.677734 8.19502 0.677734 9.99998C0.677734 11.8051 2.22228 13.2736 4.12087 13.2736C5.12875 13.2736 6.0368 12.8598 6.66704 12.2014L12.3355 15.5394C12.1843 15.9077 12.1002 16.3078 12.1002 16.7265C12.1002 18.5315 13.6448 20 15.5434 20C17.442 20 18.9865 18.5315 18.9865 16.7265C18.9865 14.9214 17.442 13.4529 15.5434 13.4529ZM13.3558 3.27361C13.3558 2.12677 14.3371 1.19369 15.5434 1.19369C16.7496 1.19369 17.731 2.12677 17.731 3.27361C17.731 4.42046 16.7496 5.35354 15.5434 5.35354C14.3371 5.35354 13.3558 4.42046 13.3558 3.27361ZM4.12087 12.0799C2.91448 12.0799 1.93308 11.1468 1.93308 9.99998C1.93308 8.85313 2.91448 7.92006 4.12087 7.92006C5.32711 7.92006 6.30835 8.85313 6.30835 9.99998C6.30835 11.1468 5.32711 12.0799 4.12087 12.0799ZM13.3558 16.7263C13.3558 15.5795 14.3371 14.6464 15.5434 14.6464C16.7496 14.6464 17.731 15.5795 17.731 16.7263C17.731 17.8732 16.7496 18.8063 15.5434 18.8063C14.3371 18.8063 13.3558 17.8732 13.3558 16.7263Z" fill="black"/>
</svg>
