<svg width="20" height="21" viewBox="0 0 20 21" fill="none" xmlns="http://www.w3.org/2000/svg">
<g clip-path="url(#clip0_771_354)">
<path d="M4.47643 20.5755C4.2573 20.5755 4.03971 20.5037 3.854 20.3627C3.50808 20.0994 3.34648 19.647 3.44063 19.2104L4.72729 13.2593L0.363771 9.24123C0.0430227 8.94722 -0.0795085 8.48162 0.0521782 8.05559C0.183865 7.63036 0.542151 7.32931 0.966356 7.28813L6.73982 6.73777L9.02244 1.1289C9.19075 0.716811 9.57406 0.450684 9.99994 0.450684C10.4258 0.450684 10.8091 0.716811 10.9774 1.12794L13.2601 6.73777L19.0326 7.28813C19.4577 7.32835 19.816 7.63036 19.9477 8.05559C20.0794 8.48082 19.9576 8.94722 19.6369 9.24123L15.2734 13.2585L16.56 19.2094C16.6543 19.647 16.4926 20.0994 16.1468 20.3619C15.8018 20.6243 15.3417 20.6445 14.9784 20.4152L9.99994 17.2914L5.02148 20.417C4.85317 20.5219 4.66564 20.5755 4.47643 20.5755ZM9.99994 15.9457C10.1892 15.9457 10.3765 15.999 10.545 16.104L15.2435 19.0546L14.0291 13.4377C13.9425 13.038 14.0717 12.6206 14.3659 12.3502L18.486 8.55612L13.035 8.03637C12.6425 7.99871 12.305 7.73964 12.1516 7.35991L9.99994 2.06684L7.84565 7.36071C7.69398 7.73787 7.35644 7.99695 6.96489 8.0346L1.51309 8.55436L5.63307 12.3484C5.92818 12.6197 6.05728 13.0362 5.96984 13.4369L4.75643 19.0537L9.45489 16.104C9.62319 15.999 9.81073 15.9457 9.99994 15.9457ZM6.69572 6.84624C6.69572 6.84624 6.69572 6.8472 6.69481 6.848L6.69572 6.84624ZM13.3025 6.84368L13.3034 6.84544C13.3034 6.84448 13.3034 6.84448 13.3025 6.84368Z" fill="black"/>
</g>
<defs>
<clipPath id="clip0_771_354">
<rect width="20" height="21" fill="white"/>
</clipPath>
</defs>
</svg>
