<svg width="110" height="110" viewBox="0 0 110 110" fill="none" xmlns="http://www.w3.org/2000/svg">
<circle cx="55" cy="55" r="55" fill="#FFD1D1"/>
<g clip-path="url(#clip0_1559_4761)">
<path d="M59.6829 55.4998L68.0491 47.1337C69.2058 45.9769 69.2058 44.1073 68.0491 42.9506C66.8924 41.7939 65.0227 41.7939 63.866 42.9506L55.4998 51.3167L47.1307 42.9476C45.974 41.7909 44.1043 41.7909 42.9476 42.9476C41.7909 44.1043 41.7909 45.974 42.9476 47.1307L51.3167 55.4998L42.9506 63.866C41.7939 65.0227 41.7939 66.8924 42.9506 68.0491C43.5274 68.6259 44.2848 68.9159 45.0421 68.9159C45.7994 68.9159 46.5568 68.6259 47.1337 68.0491L55.4998 59.6829L63.866 68.0491C64.4429 68.6259 65.2002 68.9159 65.9575 68.9159C66.7149 68.9159 67.4722 68.6259 68.0491 68.0491C69.2058 66.8924 69.2058 65.0227 68.0491 63.866L59.6829 55.4998Z" fill="#C26464"/>
</g>
<defs>
<clipPath id="clip0_1559_4761">
<rect width="27" height="27" fill="white" transform="translate(42 42)"/>
</clipPath>
</defs>
</svg>
