<?xml version="1.0" encoding="UTF-8" standalone="no"?>
<!-- Created with Inkscape (http://www.inkscape.org/) -->

<svg
   width="96.373947mm"
   height="79.046318mm"
   viewBox="0 0 96.373947 79.046318"
   version="1.1"
   id="svg5766"
   inkscape:version="1.1 (c4e8f9ed74, 2021-05-24)"
   sodipodi:docname="logo.svg"
   xmlns:inkscape="http://www.inkscape.org/namespaces/inkscape"
   xmlns:sodipodi="http://sodipodi.sourceforge.net/DTD/sodipodi-0.dtd"
   xmlns="http://www.w3.org/2000/svg"
   xmlns:svg="http://www.w3.org/2000/svg">
  <sodipodi:namedview
     id="namedview5768"
     pagecolor="#ffffff"
     bordercolor="#666666"
     borderopacity="1.0"
     inkscape:pageshadow="2"
     inkscape:pageopacity="0.0"
     inkscape:pagecheckerboard="0"
     inkscape:document-units="mm"
     showgrid="false"
     inkscape:zoom="0.64765011"
     inkscape:cx="249.36304"
     inkscape:cy="408.39953"
     inkscape:window-width="1920"
     inkscape:window-height="952"
     inkscape:window-x="1366"
     inkscape:window-y="32"
     inkscape:window-maximized="1"
     inkscape:current-layer="layer1" />
  <defs
     id="defs5763">
    <clipPath
       clipPathUnits="userSpaceOnUse"
       id="clipPath24">
      <path
         d="M 0,2359.42 H 1920 V 0 H 0 Z"
         id="path22" />
    </clipPath>
  </defs>
  <g
     inkscape:label="Layer 1"
     inkscape:groupmode="layer"
     id="layer1"
     transform="translate(-39.23806,-40.54837)">
    <g
       id="g18"
       transform="matrix(0.35277777,0,0,-0.35277777,1.884186,839.13931)">
      <g
         id="g20"
         clip-path="url(#clipPath24)">
        <g
           id="g26"
           transform="translate(216.8396,2263.7224)">
          <path
             d="m 0,0 c -2.716,0 -4.917,-2.201 -4.917,-4.917 0,-2.716 2.201,-4.917 4.917,-4.917 2.716,0 4.917,2.201 4.917,4.917 C 4.917,-2.201 2.716,0 0,0"
             style="fill:#3db8e0;fill-opacity:1;fill-rule:nonzero;stroke:none"
             id="path28" />
        </g>
        <g
           id="g30"
           transform="translate(275.1042,2162.4536)">
          <path
             d="m 0,0 c 0,2.716 -2.201,4.917 -4.917,4.917 -2.716,0 -4.917,-2.201 -4.917,-4.917 0,-2.716 2.201,-4.917 4.917,-4.917 C -2.201,-4.917 0,-2.716 0,0"
             style="fill:#3db8e0;fill-opacity:1;fill-rule:nonzero;stroke:none"
             id="path32" />
        </g>
        <g
           id="g34"
           transform="translate(296.3023,2204.8796)">
          <path
             d="m 0,0 c -2.716,0 -4.917,-2.201 -4.917,-4.917 0,-2.716 2.201,-4.917 4.917,-4.917 2.716,0 4.917,2.201 4.917,4.917 C 4.917,-2.201 2.716,0 0,0"
             style="fill:#3db8e0;fill-opacity:1;fill-rule:nonzero;stroke:none"
             id="path36" />
        </g>
        <g
           id="g38"
           transform="translate(234.338,2219.2664)">
          <path
             d="m 0,0 h 8.637 c 4.763,0 8.638,3.875 8.638,8.638 v 19.857 c 0,4.763 -3.875,8.638 -8.638,8.638 C 3.875,37.133 0,33.258 0,28.495 Z m 63.772,-61.903 h -3.269 c -8.635,0 -15.66,7.025 -15.66,15.66 v 16.571 c 0,4.763 -3.875,8.638 -8.638,8.638 h -0.934 c -4.763,0 -8.638,-3.875 -8.638,-8.638 v -16.571 c 0,-8.635 -7.025,-15.66 -15.66,-15.66 H 8.637 c -8.635,0 -15.659,7.025 -15.659,15.66 v 39.221 h -0.456 c -4.763,0 -8.638,-3.875 -8.638,-8.638 v -30.583 c 0,-8.635 -7.025,-15.66 -15.66,-15.66 h -17.473 c -8.635,0 -15.66,7.025 -15.66,15.66 v 16.571 c 0,4.763 -3.875,8.638 -8.638,8.638 h -51.395 c -1.939,0 -3.511,1.572 -3.511,3.511 0,1.939 1.572,3.511 3.511,3.511 h 51.395 c 8.635,0 15.66,-7.025 15.66,-15.66 v -16.571 c 0,-4.763 3.875,-8.638 8.638,-8.638 h 17.473 c 4.763,0 8.638,3.875 8.638,8.638 v 30.583 c 0,8.635 7.025,15.66 15.66,15.66 h 0.456 v 28.495 c 0,8.635 7.024,15.66 15.659,15.66 8.636,0 15.661,-7.025 15.661,-15.66 V 8.638 c 0,-8.636 -7.025,-15.66 -15.661,-15.66 H 0 v -39.221 c 0,-4.763 3.875,-8.638 8.637,-8.638 h 2.336 c 4.763,0 8.638,3.875 8.638,8.638 v 16.571 c 0,8.635 7.025,15.66 15.66,15.66 h 0.934 c 8.635,0 15.66,-7.025 15.66,-15.66 v -16.571 c 0,-4.763 3.875,-8.638 8.638,-8.638 h 3.269 c 4.763,0 8.638,3.875 8.638,8.638 v 16.571 c 0,8.635 7.025,15.66 15.66,15.66 h 53.151 c 1.94,0 3.512,-1.572 3.512,-3.511 0,-1.939 -1.572,-3.511 -3.512,-3.511 H 88.07 c -4.763,0 -8.638,-3.875 -8.638,-8.638 v -16.571 c 0,-8.635 -7.024,-15.66 -15.66,-15.66"
             style="fill:#f9a90c;fill-opacity:1;fill-rule:nonzero;stroke:none"
             id="path40" />
        </g>
        <g
           id="g42"
           transform="translate(113.8544,2040.797)">
          <path
             d="m 0,0 c -1.163,0.762 -1.959,1.889 -2.39,3.383 -0.431,1.493 -0.646,3.482 -0.646,5.968 0,2.726 0.235,4.851 0.706,6.374 0.471,1.523 1.257,2.621 2.36,3.292 1.103,0.672 2.646,1.008 4.631,1.008 1.563,0 3.282,-0.199 5.155,-0.597 0.551,-0.117 0.933,-0.623 0.913,-1.187 L 10.691,17.204 C 10.666,16.514 10.048,15.997 9.362,16.085 7.953,16.266 6.766,16.357 5.803,16.357 4.54,16.357 3.588,16.156 2.947,15.755 2.305,15.354 1.859,14.698 1.609,13.786 1.358,12.873 1.233,11.586 1.233,9.922 V 8.81 C 1.273,7.086 1.398,5.798 1.609,4.946 1.819,4.094 2.235,3.477 2.857,3.097 3.477,2.716 4.43,2.526 5.713,2.526 c 1.049,0 2.264,0.083 3.646,0.249 0.687,0.083 1.301,-0.44 1.32,-1.132 L 10.708,0.539 C 10.723,-0.042 10.308,-0.543 9.736,-0.649 7.961,-0.978 6.38,-1.142 4.992,-1.142 2.827,-1.142 1.163,-0.762 0,0"
             style="fill:#2c3476;fill-opacity:1;fill-rule:nonzero;stroke:none"
             id="path44" />
        </g>
        <g
           id="g46"
           transform="translate(131.8043,2041.4286)">
          <path
             d="m 0,0 c -1.283,1.182 -1.924,3.017 -1.924,5.502 v 12.357 c 0,0.648 0.525,1.173 1.173,1.173 h 1.803 c 0.648,0 1.174,-0.525 1.174,-1.173 V 5.412 c 0,-2.386 1.212,-3.578 3.637,-3.578 2.426,0 3.638,1.192 3.638,3.578 v 12.447 c 0,0.648 0.526,1.173 1.174,1.173 h 1.802 c 0.648,0 1.173,-0.525 1.173,-1.173 V 5.502 C 13.65,3.017 13.009,1.182 11.726,0 10.443,-1.183 8.489,-1.774 5.863,-1.774 3.237,-1.774 1.283,-1.183 0,0"
             style="fill:#2c3476;fill-opacity:1;fill-rule:nonzero;stroke:none"
             id="path48" />
        </g>
        <g
           id="g50"
           transform="translate(152.0398,2040.3761)">
          <path
             d="m 0,0 v 0 c -0.609,0.118 -1.02,0.69 -0.94,1.304 l 0.127,0.963 c 0.083,0.639 0.671,1.09 1.31,1.011 2.125,-0.261 3.793,-0.392 5.005,-0.392 2.124,0 3.187,0.882 3.187,2.646 0,0.722 -0.281,1.253 -0.842,1.594 C 7.286,7.466 6.344,7.828 5.021,8.208 3.437,8.649 2.19,9.14 1.278,9.682 c -0.913,0.541 -1.574,1.182 -1.985,1.924 -0.411,0.741 -0.616,1.663 -0.616,2.766 0,2.004 0.611,3.518 1.834,4.54 1.222,1.022 2.936,1.534 5.142,1.534 0.861,0 1.753,-0.056 2.675,-0.166 0.726,-0.087 1.718,-0.239 2.978,-0.456 0.607,-0.104 1.034,-0.662 0.972,-1.275 l -0.102,-1.012 c -0.066,-0.648 -0.652,-1.118 -1.299,-1.048 -2.146,0.232 -3.747,0.349 -4.804,0.349 -2.185,0 -3.277,-0.722 -3.277,-2.165 0,-0.501 0.18,-0.913 0.541,-1.233 0.361,-0.321 0.812,-0.586 1.353,-0.797 0.541,-0.21 1.453,-0.516 2.736,-0.917 1.383,-0.441 2.455,-0.902 3.218,-1.383 0.761,-0.481 1.312,-1.078 1.653,-1.789 0.341,-0.712 0.511,-1.629 0.511,-2.751 0,-2.105 -0.636,-3.719 -1.909,-4.841 C 9.626,-0.161 7.907,-0.722 5.742,-0.722 4.179,-0.722 2.264,-0.481 0,0"
             style="fill:#2c3476;fill-opacity:1;fill-rule:nonzero;stroke:none"
             id="path52" />
        </g>
        <g
           id="g54"
           transform="translate(172.7545,2056.7925)">
          <path
             d="m 0,0 h -3.126 c -0.648,0 -1.173,0.525 -1.173,1.173 v 1.322 c 0,0.648 0.525,1.173 1.173,1.173 H 9.561 c 0.648,0 1.174,-0.525 1.174,-1.173 V 1.173 C 10.735,0.525 10.209,0 9.561,0 H 6.496 C 5.848,0 5.322,-0.525 5.322,-1.173 v -14.431 c 0,-0.648 -0.525,-1.173 -1.173,-1.173 H 2.347 c -0.648,0 -1.174,0.525 -1.174,1.173 V -1.173 C 1.173,-0.525 0.648,0 0,0"
             style="fill:#2c3476;fill-opacity:1;fill-rule:nonzero;stroke:none"
             id="path56" />
        </g>
        <g
           id="g58"
           transform="translate(198.1464,2043.9391)">
          <path
             d="m 0,0 c 0.611,0.451 1.042,1.173 1.293,2.165 0.251,0.992 0.376,2.34 0.376,4.044 0,1.703 -0.131,3.061 -0.391,4.074 -0.26,1.012 -0.697,1.764 -1.308,2.255 -0.611,0.491 -1.448,0.737 -2.51,0.737 -1.063,0 -1.9,-0.246 -2.511,-0.737 C -5.663,12.047 -6.098,11.295 -6.359,10.283 -6.62,9.27 -6.75,7.912 -6.75,6.209 c 0,-1.584 0.11,-2.867 0.331,-3.849 0.221,-0.982 0.636,-1.734 1.248,-2.255 0.611,-0.521 1.488,-0.782 2.631,-0.782 1.082,0 1.929,0.226 2.54,0.677 m -7.501,-3.172 c -1.244,0.741 -2.141,1.879 -2.691,3.413 -0.552,1.533 -0.827,3.522 -0.827,5.968 0,2.465 0.275,4.475 0.827,6.028 0.55,1.553 1.447,2.716 2.691,3.488 1.242,0.771 2.896,1.158 4.961,1.158 2.064,0 3.717,-0.387 4.961,-1.158 C 3.663,14.953 4.56,13.79 5.111,12.237 5.663,10.684 5.938,8.674 5.938,6.209 5.938,3.803 5.673,1.839 5.142,0.316 4.61,-1.208 3.724,-2.356 2.481,-3.127 1.238,-3.899 -0.436,-4.285 -2.54,-4.285 c -2.065,0 -3.719,0.371 -4.961,1.113"
             style="fill:#2c3476;fill-opacity:1;fill-rule:nonzero;stroke:none"
             id="path60" />
        </g>
        <g
           id="g62"
           transform="translate(231.0849,2059.2874)">
          <path
             d="m 0,0 v -18.099 c 0,-0.648 -0.525,-1.173 -1.173,-1.173 h -1.803 c -0.648,0 -1.174,0.525 -1.174,1.173 V -3.457 H -4.6 L -8.366,-17.5 c -0.138,-0.513 -0.603,-0.87 -1.134,-0.87 h -2.348 c -0.531,0 -0.996,0.357 -1.134,0.87 l -3.765,14.043 h -0.452 v -14.642 c 0,-0.648 -0.525,-1.173 -1.173,-1.173 h -1.802 c -0.648,0 -1.174,0.525 -1.174,1.173 V 0 c 0,0.648 0.526,1.173 1.174,1.173 h 4.969 c 0.542,0 1.013,-0.37 1.14,-0.896 l 2.251,-9.283 c 0.29,-1.196 1.99,-1.196 2.28,0 l 2.25,9.283 c 0.128,0.526 0.599,0.896 1.141,0.896 h 4.97 C -0.525,1.173 0,0.648 0,0"
             style="fill:#2c3476;fill-opacity:1;fill-rule:nonzero;stroke:none"
             id="path64" />
        </g>
        <g
           id="g66"
           transform="translate(241.7884,2055.6794)">
          <path
             d="m 0,0 v -2.434 c 0,-0.648 0.525,-1.173 1.173,-1.173 h 4.93 c 0.648,0 1.173,-0.526 1.173,-1.174 v -1.201 c 0,-0.648 -0.525,-1.173 -1.173,-1.173 H 1.173 C 0.525,-7.155 0,-7.68 0,-8.328 v -2.555 c 0,-0.648 0.525,-1.173 1.173,-1.173 h 6.734 c 0.648,0 1.173,-0.525 1.173,-1.173 v -1.262 c 0,-0.648 -0.525,-1.173 -1.173,-1.173 H -2.976 c -0.648,0 -1.174,0.525 -1.174,1.173 V 3.608 c 0,0.648 0.526,1.173 1.174,1.173 H 7.907 C 8.555,4.781 9.08,4.256 9.08,3.608 V 2.347 C 9.08,1.699 8.555,1.173 7.907,1.173 H 1.173 C 0.525,1.173 0,0.648 0,0"
             style="fill:#2c3476;fill-opacity:1;fill-rule:nonzero;stroke:none"
             id="path68" />
        </g>
        <g
           id="g70"
           transform="translate(264.3979,2050.4185)">
          <path
             d="m 0,0 c 0.942,0 1.663,0.295 2.165,0.887 0.501,0.591 0.751,1.388 0.751,2.39 0,1.003 -0.26,1.789 -0.781,2.361 C 1.613,6.209 0.882,6.495 -0.06,6.495 h -2.615 c -0.648,0 -1.173,-0.526 -1.173,-1.174 V 1.173 C -3.848,0.525 -3.323,0 -2.675,0 Z m -7.998,8.869 c 0,0.648 0.525,1.173 1.173,1.173 h 6.765 c 4.811,0 7.216,-2.245 7.216,-6.734 0,-2.342 -0.773,-4.142 -2.319,-5.401 C 4.441,-2.415 4.283,-2.945 4.461,-3.422 L 6.475,-8.82 c 0.286,-0.766 -0.281,-1.583 -1.1,-1.583 H 3.361 c -0.5,0 -0.945,0.317 -1.109,0.789 l -1.828,5.277 c -0.164,0.472 -0.609,0.789 -1.109,0.789 h -1.99 c -0.648,0 -1.173,-0.525 -1.173,-1.173 V -9.23 c 0,-0.648 -0.526,-1.173 -1.174,-1.173 h -1.803 c -0.648,0 -1.173,0.525 -1.173,1.173 z"
             style="fill:#2c3476;fill-opacity:1;fill-rule:nonzero;stroke:none"
             id="path72" />
        </g>
        <g
           id="g74"
           transform="translate(293.3522,2049.5164)">
          <path
             d="M 0,0 C 2.064,0 3.097,1.283 3.097,3.849 3.097,5.091 2.851,5.993 2.36,6.555 1.868,7.116 1.082,7.397 0,7.397 h -2.164 c -0.648,0 -1.174,-0.526 -1.174,-1.174 V 1.173 C -3.338,0.525 -2.812,0 -2.164,0 Z m -7.487,9.771 c 0,0.648 0.526,1.173 1.174,1.173 H 0.03 c 4.851,0 7.276,-2.365 7.276,-7.095 0,-2.406 -0.616,-4.24 -1.849,-5.503 C 4.224,-2.916 2.415,-3.548 0.03,-3.548 h -2.194 c -0.648,0 -1.174,-0.525 -1.174,-1.173 v -3.607 c 0,-0.648 -0.525,-1.173 -1.173,-1.173 h -1.802 c -0.648,0 -1.174,0.525 -1.174,1.173 z"
             style="fill:#2c3476;fill-opacity:1;fill-rule:nonzero;stroke:none"
             id="path76" />
        </g>
        <g
           id="g78"
           transform="translate(307.2729,2041.4286)">
          <path
             d="m 0,0 c -1.283,1.182 -1.924,3.017 -1.924,5.502 v 12.357 c 0,0.648 0.525,1.173 1.173,1.173 h 1.803 c 0.648,0 1.174,-0.525 1.174,-1.173 V 5.412 c 0,-2.386 1.212,-3.578 3.637,-3.578 2.426,0 3.638,1.192 3.638,3.578 v 12.447 c 0,0.648 0.526,1.173 1.174,1.173 h 1.802 c 0.648,0 1.173,-0.525 1.173,-1.173 V 5.502 C 13.65,3.017 13.009,1.182 11.726,0 10.443,-1.183 8.489,-1.774 5.863,-1.774 3.237,-1.774 1.283,-1.183 0,0"
             style="fill:#2c3476;fill-opacity:1;fill-rule:nonzero;stroke:none"
             id="path80" />
        </g>
        <g
           id="g82"
           transform="translate(338.9333,2042.5101)">
          <path
             d="m 0,0 v -1.322 c 0,-0.647 -0.525,-1.173 -1.173,-1.173 h -9.29 c -0.648,0 -1.173,0.526 -1.173,1.173 v 18.099 c 0,0.648 0.525,1.174 1.173,1.174 h 1.803 c 0.648,0 1.174,-0.526 1.174,-1.174 V 2.347 c 0,-0.648 0.525,-1.174 1.173,-1.174 h 5.14 C -0.525,1.173 0,0.648 0,0"
             style="fill:#2c3476;fill-opacity:1;fill-rule:nonzero;stroke:none"
             id="path84" />
        </g>
        <g
           id="g86"
           transform="translate(343.8038,2040.3761)">
          <path
             d="m 0,0 v 0 c -0.608,0.118 -1.02,0.689 -0.939,1.304 l 0.126,0.963 c 0.083,0.639 0.671,1.09 1.31,1.011 2.125,-0.261 3.794,-0.392 5.005,-0.392 2.124,0 3.187,0.882 3.187,2.646 0,0.722 -0.281,1.253 -0.841,1.594 C 7.286,7.466 6.344,7.828 5.021,8.208 3.438,8.649 2.19,9.14 1.278,9.682 c -0.912,0.541 -1.574,1.182 -1.984,1.924 -0.412,0.741 -0.617,1.663 -0.617,2.766 0,2.004 0.611,3.518 1.834,4.54 1.223,1.022 2.936,1.534 5.142,1.534 0.861,0 1.753,-0.056 2.676,-0.166 0.725,-0.087 1.718,-0.239 2.978,-0.456 0.607,-0.104 1.033,-0.662 0.971,-1.275 l -0.102,-1.012 c -0.065,-0.648 -0.651,-1.118 -1.299,-1.048 -2.145,0.232 -3.746,0.349 -4.803,0.349 -2.186,0 -3.278,-0.722 -3.278,-2.165 0,-0.501 0.18,-0.913 0.542,-1.233 0.36,-0.321 0.811,-0.586 1.352,-0.797 0.542,-0.21 1.453,-0.516 2.736,-0.917 1.384,-0.441 2.456,-0.902 3.218,-1.383 0.761,-0.481 1.312,-1.078 1.653,-1.789 0.341,-0.712 0.512,-1.629 0.512,-2.751 0,-2.105 -0.637,-3.719 -1.91,-4.841 C 9.626,-0.161 7.907,-0.722 5.743,-0.722 4.179,-0.722 2.265,-0.481 0,0"
             style="fill:#2c3476;fill-opacity:1;fill-rule:nonzero;stroke:none"
             id="path88" />
        </g>
        <g
           id="g90"
           transform="translate(366.2036,2055.6794)">
          <path
             d="m 0,0 v -2.434 c 0,-0.648 0.525,-1.173 1.173,-1.173 h 4.93 c 0.648,0 1.173,-0.526 1.173,-1.174 v -1.201 c 0,-0.648 -0.525,-1.173 -1.173,-1.173 H 1.173 C 0.525,-7.155 0,-7.68 0,-8.328 v -2.555 c 0,-0.648 0.525,-1.173 1.173,-1.173 h 6.734 c 0.648,0 1.173,-0.525 1.173,-1.173 v -1.262 c 0,-0.648 -0.525,-1.173 -1.173,-1.173 H -2.976 c -0.648,0 -1.174,0.525 -1.174,1.173 V 3.608 c 0,0.648 0.526,1.173 1.174,1.173 H 7.907 C 8.555,4.781 9.08,4.256 9.08,3.608 V 2.347 C 9.08,1.699 8.555,1.173 7.907,1.173 H 1.173 C 0.525,1.173 0,0.648 0,0"
             style="fill:#2c3476;fill-opacity:1;fill-rule:nonzero;stroke:none"
             id="path92" />
        </g>
        <g
           id="g94"
           transform="translate(192.5661,2084.543)">
          <path
             d="m 0,0 h -6.186 c -0.594,0 -1.099,0.439 -1.172,1.029 -0.053,0.425 -0.104,0.906 -0.154,1.444 -0.096,1.031 -0.144,2.069 -0.144,3.111 0,1.824 0.125,3.547 0.376,5.168 0.077,0.499 0.469,0.893 0.967,0.974 0.595,0.096 1.243,0.144 1.944,0.144 1.871,0 3.265,-0.468 4.18,-1.404 C 0.725,9.53 1.182,7.977 1.182,5.807 V 1.182 C 1.182,0.529 0.653,0 0,0 m -3.954,14.072 c -1.085,0 -2.118,-0.091 -3.095,-0.272 -0.606,-0.112 -1.122,-0.23 -1.548,-0.354 -0.425,-0.124 -0.745,-0.465 -0.834,-0.899 -0.154,-0.76 -0.297,-1.672 -0.426,-2.735 -0.171,-1.394 -0.256,-2.803 -0.256,-4.228 0,-1.442 0.086,-2.865 0.259,-4.27 C -9.768,0.614 -10.321,0 -11.026,0 h -3.905 -7.977 -7.977 -7.977 -7.977 -7.977 -7.977 -2.486 c -0.654,0 -1.183,0.529 -1.183,1.182 v 18.344 c 0,0.653 -0.529,1.182 -1.182,1.182 h -0.092 c -0.653,0 -1.183,-0.529 -1.183,-1.182 V -3.191 c 0,-1.51 -0.548,-2.674 -1.643,-3.494 -1.096,-0.818 -2.43,-1.228 -4.005,-1.228 -1.084,0 -2.074,0.197 -2.967,0.59 -0.893,0.394 -1.601,0.953 -2.122,1.675 -0.521,0.724 -0.782,1.543 -0.782,2.457 0,0.618 0.117,1.845 0.351,3.686 0.185,1.455 0.397,2.988 0.636,4.597 0.102,0.69 -0.408,1.322 -1.105,1.36 h -0.008 c -0.6,0.033 -1.134,-0.392 -1.233,-0.985 -0.267,-1.585 -0.505,-3.162 -0.714,-4.733 -0.256,-1.914 -0.383,-3.276 -0.383,-4.084 0,-1.319 0.371,-2.489 1.116,-3.51 0.745,-1.021 1.755,-1.819 3.031,-2.393 1.277,-0.575 2.691,-0.862 4.244,-0.862 1.447,0 2.781,0.25 4.005,0.75 1.223,0.5 2.201,1.25 2.935,2.25 0.734,1 1.101,2.212 1.101,3.637 v 0.094 c 0,0.653 0.529,1.182 1.183,1.182 h 2.486 7.977 7.977 7.977 7.977 7.977 7.977 17.388 c 0.653,0 1.183,0.53 1.183,1.183 v 6.794 c 0,2.978 -0.618,5.106 -1.851,6.382 -1.234,1.276 -3.148,1.915 -5.743,1.915"
             style="fill:#2c3476;fill-opacity:1;fill-rule:nonzero;stroke:none"
             id="path96" />
        </g>
        <g
           id="g98"
           transform="translate(234.0137,2103.9431)">
          <path
             d="m 0,0 h -0.06 c -0.653,0 -1.183,-0.53 -1.183,-1.183 v -0.315 c 0,-0.653 0.53,-1.182 1.183,-1.182 H 0 c 0.653,0 1.182,0.529 1.182,1.182 v 0.315 C 1.182,-0.53 0.653,0 0,0"
             style="fill:#2c3476;fill-opacity:1;fill-rule:nonzero;stroke:none"
             id="path100" />
        </g>
        <g
           id="g102"
           transform="translate(230.0253,2103.9431)">
          <path
             d="m 0,0 h -0.06 c -0.653,0 -1.183,-0.53 -1.183,-1.183 v -0.315 c 0,-0.653 0.53,-1.182 1.183,-1.182 H 0 c 0.653,0 1.182,0.529 1.182,1.182 v 0.315 C 1.182,-0.53 0.653,0 0,0"
             style="fill:#2c3476;fill-opacity:1;fill-rule:nonzero;stroke:none"
             id="path104" />
        </g>
        <g
           id="g106"
           transform="translate(252.903,2084.543)">
          <path
             d="m 0,0 h -6.186 c -0.594,0 -1.099,0.439 -1.172,1.029 -0.053,0.425 -0.104,0.906 -0.154,1.444 -0.096,1.031 -0.144,2.069 -0.144,3.111 0,1.824 0.125,3.547 0.376,5.168 0.077,0.499 0.469,0.893 0.967,0.974 0.595,0.096 1.243,0.144 1.944,0.144 1.871,0 3.265,-0.468 4.18,-1.404 C 0.725,9.53 1.182,7.977 1.182,5.807 V 1.182 C 1.182,0.529 0.653,0 0,0 m -35.866,2.403 c -0.409,-0.298 -0.968,-0.27 -1.378,0.026 -1.31,0.948 -2.381,2.068 -3.213,3.362 -0.799,1.242 -1.272,2.558 -1.418,3.949 -0.059,0.558 0.29,1.079 0.823,1.256 1.751,0.582 3.257,0.874 4.52,0.874 1.297,0 2.814,-0.291 4.551,-0.871 0.534,-0.179 0.883,-0.701 0.822,-1.26 -0.152,-1.374 -0.634,-2.685 -1.449,-3.932 -0.858,-1.315 -1.944,-2.45 -3.258,-3.404 M 11.138,1.182 C 11.138,0.529 10.608,0 9.955,0 H 7.213 V 0 H 6.192 C 5.361,0 4.643,0.267 4.038,0.803 3.784,1.027 3.64,1.355 3.64,1.694 v 4.081 c 0,2.978 -0.618,5.106 -1.851,6.382 -1.234,1.276 -3.148,1.915 -5.743,1.915 -1.085,0 -2.118,-0.091 -3.095,-0.272 -0.606,-0.112 -1.122,-0.23 -1.548,-0.354 -0.425,-0.124 -0.745,-0.465 -0.834,-0.899 -0.154,-0.76 -0.297,-1.672 -0.426,-2.735 -0.171,-1.394 -0.256,-2.803 -0.256,-4.228 0,-1.442 0.086,-2.865 0.259,-4.27 C -9.768,0.614 -10.32,0 -11.026,0 h -3.905 -3.572 c -0.653,0 -1.182,0.529 -1.182,1.182 V 12.57 c 0,0.653 -0.53,1.182 -1.183,1.182 h -0.091 c -0.654,0 -1.183,-0.529 -1.183,-1.182 V 1.182 C -22.142,0.529 -22.671,0 -23.324,0 h -3.572 v 0 h -3.382 c -0.559,0 -1.114,0.046 -1.665,0.137 -0.952,0.159 -1.32,1.324 -0.638,2.007 0.466,0.468 0.899,0.966 1.298,1.494 0.818,1.084 1.441,2.153 1.866,3.206 0.426,1.053 0.66,1.995 0.702,2.824 l 0.063,1.493 c 0.02,0.469 -0.238,0.914 -0.663,1.115 -2.533,1.197 -4.949,1.796 -7.249,1.796 -2.318,0 -4.717,-0.599 -7.195,-1.793 -0.42,-0.203 -0.674,-0.645 -0.654,-1.111 l 0.064,-1.5 c 0.042,-1.298 0.552,-2.797 1.531,-4.499 0.636,-1.106 1.411,-2.118 2.326,-3.036 C -39.811,1.45 -40.19,0.282 -41.143,0.131 -41.691,0.043 -42.238,0 -42.786,0 h -3.669 v 0 h -1.817 c -0.653,0 -1.182,0.529 -1.182,1.182 v 18.344 c 0,0.653 -0.53,1.182 -1.183,1.182 h -0.092 c -0.653,0 -1.182,-0.529 -1.182,-1.182 V -1.019 c 0,-0.653 0.529,-1.183 1.182,-1.183 h 4.274 v 0 h 3.765 c 1.042,0 2.1,0.133 3.175,0.399 0.881,0.218 1.709,0.498 2.484,0.838 0.32,0.141 0.677,0.136 0.995,-0.008 0.78,-0.354 1.625,-0.636 2.535,-0.846 1.106,-0.255 2.191,-0.383 3.255,-0.383 h 3.35 v 0 h 11.965 17.388 c 0.653,0 1.183,0.53 1.183,1.183 v 0.062 C 4.023,-1.34 4.442,-1.643 4.9,-1.867 5.357,-2.09 5.788,-2.202 6.192,-2.202 h 1.021 v 0 h 5.199 c 0.653,0 1.182,0.53 1.182,1.183 v 20.545 c 0,0.653 -0.529,1.182 -1.182,1.182 H 12.32 c -0.653,0 -1.182,-0.529 -1.182,-1.182 z"
             style="fill:#2c3476;fill-opacity:1;fill-rule:nonzero;stroke:none"
             id="path108" />
        </g>
        <g
           id="g110"
           transform="translate(272.2407,2104.0686)">
          <path
             d="m 0,0 v -20.545 c 0,-0.653 0.529,-1.182 1.182,-1.182 h 0.092 c 0.653,0 1.183,0.529 1.183,1.182 V 0 c 0,0.653 -0.53,1.183 -1.183,1.183 H 1.182 C 0.529,1.183 0,0.653 0,0"
             style="fill:#2c3476;fill-opacity:1;fill-rule:nonzero;stroke:none"
             id="path112" />
        </g>
        <g
           id="g114"
           transform="translate(309.4743,2103.9431)">
          <path
             d="m 0,0 h -0.06 c -0.653,0 -1.182,-0.53 -1.182,-1.183 v -0.315 c 0,-0.653 0.529,-1.182 1.182,-1.182 H 0 c 0.653,0 1.182,0.529 1.182,1.182 v 0.315 C 1.182,-0.53 0.653,0 0,0"
             style="fill:#2c3476;fill-opacity:1;fill-rule:nonzero;stroke:none"
             id="path116" />
        </g>
        <g
           id="g118"
           transform="translate(360.2112,2077.1086)">
          <path
             d="M 0,0 H 0.06 C 0.713,0 1.243,0.529 1.243,1.182 V 1.498 C 1.243,2.151 0.713,2.68 0.06,2.68 H 0 c -0.653,0 -1.182,-0.529 -1.182,-1.182 V 1.182 C -1.182,0.529 -0.653,0 0,0"
             style="fill:#2c3476;fill-opacity:1;fill-rule:nonzero;stroke:none"
             id="path120" />
        </g>
        <g
           id="g122"
           transform="translate(372.2368,2103.9431)">
          <path
             d="m 0,0 h -0.06 c -0.653,0 -1.183,-0.53 -1.183,-1.183 v -0.315 c 0,-0.653 0.53,-1.182 1.183,-1.182 H 0 c 0.653,0 1.182,0.529 1.182,1.182 v 0.315 C 1.182,-0.53 0.653,0 0,0"
             style="fill:#2c3476;fill-opacity:1;fill-rule:nonzero;stroke:none"
             id="path124" />
        </g>
        <g
           id="g126"
           transform="translate(314.9626,2084.543)">
          <path
             d="m 0,0 h -11.483 c -0.653,0 -1.183,0.529 -1.183,1.182 v 3.985 c 0,0.25 0.081,0.499 0.228,0.701 0.723,0.994 1.402,1.862 2.038,2.604 0.702,0.818 1.616,1.589 2.744,2.313 1.127,0.723 2.35,1.085 3.669,1.085 1.68,0 2.962,-0.612 3.845,-1.835 C 0.741,8.812 1.182,7.285 1.182,5.456 V 1.182 C 1.182,0.529 0.653,0 0,0 M 56.032,12.57 V 1.182 C 56.032,0.529 55.502,0 54.849,0 H 51.277 47.705 C 47.052,0 46.523,0.529 46.523,1.182 V 12.57 c 0,0.653 -0.529,1.182 -1.182,1.182 h -0.092 c -0.653,0 -1.183,-0.529 -1.183,-1.182 V 1.182 C 44.066,0.529 43.537,0 42.884,0 H 39.312 31.335 23.358 15.381 7.404 V 0 H 4.822 C 4.169,0 3.639,0.529 3.639,1.182 v 4.625 c 0,2.213 -0.558,4.143 -1.675,5.792 -1.117,1.648 -3.015,2.473 -5.696,2.473 -1.361,0 -2.563,-0.235 -3.605,-0.703 -1.042,-0.468 -1.952,-1.074 -2.728,-1.818 -0.577,-0.554 -1.204,-1.23 -1.88,-2.03 -0.246,-0.289 -0.721,-0.121 -0.721,0.259 v 3.565 c 0,0.225 -0.182,0.407 -0.407,0.407 h -0.867 c -0.653,0 -1.183,-0.529 -1.183,-1.182 V -3.127 c 0,-0.914 -0.266,-1.739 -0.797,-2.473 -0.532,-0.733 -1.234,-1.303 -2.106,-1.707 -0.873,-0.404 -1.819,-0.606 -2.84,-0.606 -1.043,0 -2.005,0.213 -2.888,0.638 -0.883,0.426 -1.585,1.032 -2.106,1.819 -0.521,0.787 -0.781,1.681 -0.781,2.68 0,1.007 0.326,3.628 0.978,7.862 0.107,0.691 -0.405,1.328 -1.103,1.366 v 0 C -27.367,6.485 -27.901,6.058 -28,5.464 c -0.267,-1.598 -0.506,-3.175 -0.715,-4.73 -0.255,-1.893 -0.383,-3.244 -0.383,-4.052 0,-1.319 0.372,-2.494 1.117,-3.526 0.744,-1.032 1.754,-1.835 3.031,-2.409 1.276,-0.575 2.691,-0.862 4.243,-0.862 1.447,0 2.782,0.25 4.005,0.75 1.223,0.5 2.202,1.25 2.935,2.25 0.735,1 1.101,2.212 1.101,3.637 v 0.094 c 0,0.653 0.53,1.182 1.183,1.182 H 7.404 v 0 h 7.977 7.977 7.977 7.977 11.965 6.029 c 0.653,0 1.182,0.53 1.182,1.183 V 12.57 c 0,0.653 -0.529,1.182 -1.182,1.182 h -0.092 c -0.653,0 -1.182,-0.529 -1.182,-1.182"
             style="fill:#2c3476;fill-opacity:1;fill-rule:nonzero;stroke:none"
             id="path128" />
        </g>
      </g>
    </g>
  </g>
</svg>
