<svg width="80" height="80" viewBox="0 0 80 80" fill="none" xmlns="http://www.w3.org/2000/svg">
<path d="M0.842657 16.3119L16.467 0.686563C16.9066 0.246875 17.5028 0 18.1244 0H54.0625C57.9395 0 61.0938 3.15422 61.0938 7.03125V37.9434C71.6259 39.1131 79.8438 48.0673 79.8438 58.9062C79.8438 70.5373 70.3811 80 58.75 80H7.1875C3.31047 80 0.15625 76.8458 0.15625 72.9688V17.9692C0.15625 17.3475 0.403126 16.7516 0.842657 16.3119V16.3119ZM15.7812 8.00203L10.6891 13.0944L8.15844 15.625H15.7812V8.00203ZM75.1562 58.9062C75.1562 49.8598 67.7964 42.5 58.75 42.5C49.7036 42.5 42.3438 49.8598 42.3438 58.9062C42.3438 67.9527 49.7036 75.3125 58.75 75.3125C67.7964 75.3125 75.1562 67.9527 75.1562 58.9062ZM7.1875 75.3125H45.508C41.295 71.9055 38.4159 66.9127 37.787 61.25H13.4375C12.1431 61.25 11.0938 60.2006 11.0938 58.9062C11.0938 57.6119 12.1431 56.5625 13.4375 56.5625H37.7872C38.1694 53.1219 39.3816 49.9283 41.2197 47.1875H13.4375C12.1431 47.1875 11.0938 46.1381 11.0938 44.8438C11.0938 43.5494 12.1431 42.5 13.4375 42.5H45.508C48.5581 40.0334 52.3066 38.3987 56.4062 37.9434V7.03125C56.4062 5.73891 55.3548 4.6875 54.0625 4.6875H20.4688V17.9688C20.4688 19.2631 19.4194 20.3125 18.125 20.3125H4.84375V72.9688C4.84375 74.2611 5.89516 75.3125 7.1875 75.3125V75.3125Z" fill="#111F52"/>
<path d="M13.4375 28.4375H47.8125C49.1069 28.4375 50.1562 29.4869 50.1562 30.7812C50.1562 32.0756 49.1069 33.125 47.8125 33.125H13.4375C12.1431 33.125 11.0938 32.0756 11.0938 30.7812C11.0938 29.4869 12.1431 28.4375 13.4375 28.4375Z" fill="#111F52"/>
<path d="M68.376 53.0304C67.4609 52.1152 65.9768 52.1152 65.0615 53.0304L55.7813 62.3105L52.751 59.2802C51.8359 58.365 50.3518 58.365 49.4365 59.2802C48.5212 60.1954 48.5212 61.6794 49.4365 62.5947L54.124 67.2822C54.5816 67.7399 55.1815 67.9688 55.7813 67.9688C56.3812 67.9688 56.981 67.7399 57.4385 67.2822L68.376 56.3447C69.2913 55.4296 69.2913 53.9455 68.376 53.0304V53.0304Z" fill="#3E7863"/>
</svg>
