<svg width="23" height="23" viewBox="0 0 23 23" fill="none" xmlns="http://www.w3.org/2000/svg">
<path d="M7.36 22.54H18.906C19.688 22.54 20.286 21.942 20.286 21.16V3.90996C20.286 3.12796 19.688 2.52996 18.906 2.52996H15.962L14.03 0.597961C13.938 0.505961 13.8 0.459961 13.708 0.459961H4.094C3.312 0.459961 2.714 1.05796 2.714 1.83996V18.216C2.714 18.998 3.312 19.596 4.094 19.596H5.98V21.16C5.98 21.942 6.578 22.54 7.36 22.54ZM18.906 3.44996C19.182 3.44996 19.366 3.63396 19.366 3.90996V21.16C19.366 21.436 19.182 21.62 18.906 21.62H7.36C7.084 21.62 6.9 21.436 6.9 21.16V19.596H16.56C17.342 19.596 17.94 18.998 17.94 18.216V4.69196C17.94 4.64596 17.94 4.59996 17.894 4.55396V4.50796C17.894 4.46196 17.848 4.41596 17.802 4.36996L16.882 3.44996H18.906ZM14.168 2.02396L16.376 4.23196H14.168V2.02396ZM3.634 18.216V1.83996C3.634 1.56396 3.818 1.37996 4.094 1.37996H13.248V4.69196C13.248 4.96796 13.432 5.15196 13.708 5.15196H17.02V18.216C17.02 18.492 16.836 18.676 16.56 18.676H4.094C3.864 18.676 3.634 18.446 3.634 18.216Z" fill="#111F52"/>
<path d="M5.52 6.99227H9.43C9.706 6.99227 9.89 6.80827 9.89 6.53227C9.89 6.25627 9.706 6.07227 9.43 6.07227H5.52C5.244 6.07227 5.06 6.25627 5.06 6.53227C5.06 6.80827 5.29 6.99227 5.52 6.99227Z" fill="#111F52"/>
<path d="M15.594 8.74027C15.594 8.46427 15.41 8.28027 15.134 8.28027H5.52C5.244 8.28027 5.06 8.46427 5.06 8.74027C5.06 9.01627 5.244 9.20027 5.52 9.20027H15.134C15.41 9.20027 15.594 8.97027 15.594 8.74027Z" fill="#111F52"/>
<path d="M13.11 11.4999L9.292 15.2719L7.59 13.5699C7.406 13.3859 7.13 13.3859 6.946 13.5699C6.762 13.7539 6.762 14.0299 6.946 14.2139L8.97 16.2839C9.062 16.3759 9.2 16.4219 9.292 16.4219C9.43 16.4219 9.522 16.3759 9.614 16.2839L13.754 12.1899C13.938 12.0059 13.938 11.7299 13.754 11.5459C13.57 11.3619 13.294 11.3159 13.11 11.4999Z" fill="#111F52"/>
</svg>
