<svg width="31" height="25" viewBox="0 0 31 25" fill="none" xmlns="http://www.w3.org/2000/svg">
<path d="M28.4166 0.875H2.58335C1.15856 0.875 0 2.03356 0 3.45835V21.5417C0 22.9664 1.15856 24.125 2.58335 24.125H28.4167C29.8414 24.125 31 22.9664 31 21.5416V3.45835C31 2.03356 29.8414 0.875 28.4166 0.875ZM2.58335 2.16665H28.4167C28.5119 2.16665 28.5957 2.20134 28.6851 2.22096C26.4485 4.26787 19.0325 11.0523 16.4373 13.3905C16.2342 13.5734 15.9069 13.7916 15.5001 13.7916C15.0932 13.7916 14.7659 13.5734 14.5622 13.3899C11.9672 11.052 4.55076 4.26726 2.31459 2.22108C2.40407 2.20146 2.48811 2.16665 2.58335 2.16665ZM1.29165 21.5416V3.45835C1.29165 3.33181 1.32979 3.21701 1.36394 3.10137C3.07572 4.66808 8.2503 9.40188 11.6056 12.453C8.2612 15.3258 3.08529 20.233 1.35988 21.8783C1.32943 21.7685 1.29165 21.661 1.29165 21.5416ZM28.4166 22.8334H2.58335C2.48018 22.8334 2.38845 22.7974 2.29212 22.7744C4.07505 21.0747 9.28389 16.1393 12.5695 13.3285C12.9978 13.7171 13.389 14.0713 13.6975 14.3492C14.2298 14.8298 14.8529 15.0834 15.5 15.0834C16.1471 15.0834 16.7702 14.8298 17.3019 14.3498C17.6104 14.0718 18.002 13.7172 18.4305 13.3285C21.7163 16.139 26.9244 21.074 28.7079 22.7744C28.6115 22.7974 28.5199 22.8334 28.4166 22.8334ZM29.7084 21.5416C29.7084 21.661 29.6706 21.7685 29.6402 21.8783C27.9141 20.2321 22.7388 15.3255 19.3945 12.4531C22.7499 9.40194 27.9237 4.66856 29.6361 3.10125C29.6702 3.21689 29.7084 3.33175 29.7084 3.45829V21.5416Z" fill="#111F52"/>
</svg>
