<svg width="20" height="20" viewBox="0 0 20 20" fill="none" xmlns="http://www.w3.org/2000/svg">
<g clip-path="url(#clip0_981_5329)">
<path d="M18.4692 3.33333L13 8.73751V3.33333H11.5614L6.33333 8.63609V0H0V20H20V3.33333H18.4692ZM18.6667 18.6667H1.33333V1.33333H5V10.3333H6.53242L11.6667 5.12575V10.3333H13.2819L18.6667 5.0125V18.6667Z" fill="#3E7863"/>
<path d="M5 13V13.3333H6.33333V13V12H5V13Z" fill="#3E7863"/>
<path d="M6.33333 15H5V16.3333H6.33333V15Z" fill="#3E7863"/>
<path d="M8.3335 13V13.3333H9.66683V13V12H8.3335V13Z" fill="#3E7863"/>
<path d="M9.66683 15H8.3335V16.3333H9.66683V15Z" fill="#3E7863"/>
<path d="M11.6665 13V13.3333H12.9998V13V12H11.6665V13Z" fill="#3E7863"/>
<path d="M12.9998 15H11.6665V16.3333H12.9998V15Z" fill="#3E7863"/>
<path d="M16.3333 12H15V13.3333H16.3333V12Z" fill="#3E7863"/>
<path d="M16.3333 15H15V16.3333H16.3333V15Z" fill="#3E7863"/>
</g>
<defs>
<clipPath id="clip0_981_5329">
<rect width="20" height="20" fill="white"/>
</clipPath>
</defs>
</svg>
