<svg width="27" height="27" viewBox="0 0 27 27" fill="none" xmlns="http://www.w3.org/2000/svg">
<g clip-path="url(#clip0_374_270)">
<path d="M7.24809 3.22656C5.9568 3.22656 4.90625 4.27711 4.90625 5.5684V10.2521C4.90625 10.6832 5.25576 11.0327 5.68686 11.0327C6.11797 11.0327 6.46747 10.6832 6.46747 10.2521V7.91024H8.0287V10.2521C8.0287 10.6832 8.37821 11.0327 8.80931 11.0327C9.24042 11.0327 9.58992 10.6832 9.58992 10.2521V5.5684C9.58992 4.27711 8.53943 3.22656 7.24809 3.22656ZM6.46747 6.34901V5.5684C6.46747 5.13797 6.81766 4.78779 7.24809 4.78779C7.67852 4.78779 8.0287 5.13797 8.0287 5.5684V6.34901H6.46747Z" fill="#6C7492"/>
<path d="M24.4222 9.47143H15.0549C14.7812 9.47143 14.5186 9.51905 14.2742 9.60569V2.34184C14.2742 1.05055 13.2237 0 11.9324 0H2.46098C1.16969 0 0.119141 1.05055 0.119141 2.34184V16.4969C0.119141 16.8127 0.309298 17.0973 0.601039 17.2181C0.892675 17.339 1.22849 17.2721 1.45175 17.0489L4.34553 14.1551H11.9324C12.2061 14.1551 12.4687 14.1075 12.713 14.0208V21.1806C12.713 22.4719 13.7636 23.5224 15.0549 23.5224H22.5376L25.4314 26.4162C25.655 26.6399 25.991 26.706 26.2821 26.5855C26.5738 26.4646 26.764 26.18 26.764 25.8643V11.8133C26.764 10.522 25.7135 9.47143 24.4222 9.47143ZM11.9324 12.5939H4.0222C3.81513 12.5939 3.6166 12.6761 3.47026 12.8225L1.68037 14.6124V2.34184C1.68037 1.91141 2.03055 1.56122 2.46098 1.56122H11.9324C12.3628 1.56122 12.713 1.91141 12.713 2.34184V11.8133C12.713 12.2437 12.3629 12.5939 11.9324 12.5939ZM25.2028 23.9797L23.4129 22.1899C23.2666 22.0435 23.068 21.9612 22.861 21.9612H15.0549C14.6244 21.9612 14.2742 21.611 14.2742 21.1806V11.8133C14.2742 11.3828 14.6244 11.0327 15.0549 11.0327H24.4222C24.8526 11.0327 25.2028 11.3828 25.2028 11.8133V23.9797Z" fill="#6C7492"/>
<path d="M18.9571 17.2777H21.2989C21.73 17.2777 22.0795 16.9282 22.0795 16.4971C22.0795 16.0659 21.73 15.7164 21.2989 15.7164H19.7377C19.3073 15.7164 18.9571 15.3663 18.9571 14.9358C18.9571 14.5054 19.3073 14.1552 19.7377 14.1552C20.0155 14.1552 20.2665 14.298 20.4091 14.5371C20.6299 14.9074 21.109 15.0286 21.4793 14.8077C21.8496 14.5869 21.9707 14.1077 21.7499 13.7374C21.3293 13.0321 20.5583 12.594 19.7377 12.594C18.4464 12.594 17.3958 13.6445 17.3958 14.9358C17.3958 15.3531 17.5054 15.7451 17.6975 16.0847C17.0471 16.5013 16.6152 17.2303 16.6152 18.0583C16.6152 19.3496 17.6658 20.4001 18.9571 20.4001H21.2989C21.73 20.4001 22.0795 20.0506 22.0795 19.6195C22.0795 19.1884 21.73 18.8389 21.2989 18.8389H18.9571C18.5266 18.8389 18.1765 18.4887 18.1765 18.0583C18.1765 17.6279 18.5266 17.2777 18.9571 17.2777Z" fill="#6C7492"/>
</g>
<defs>
<clipPath id="clip0_374_270">
<rect width="26.6449" height="26.6449" fill="white" transform="translate(0.119141)"/>
</clipPath>
</defs>
</svg>
