<svg width="27" height="27" viewBox="0 0 27 27" fill="none" xmlns="http://www.w3.org/2000/svg">
<g clip-path="url(#clip0_316_7736)">
<path d="M13.3689 12.8349C15.1322 12.8349 16.6588 12.2025 17.9066 10.9548C19.1539 9.70722 19.7866 8.18076 19.7866 6.41727C19.7866 4.65439 19.1541 3.12773 17.9064 1.87977C16.6586 0.632417 15.1319 0 13.3689 0C11.6054 0 10.0789 0.632417 8.83135 1.87997C7.58379 3.12753 6.95117 4.65419 6.95117 6.41727C6.95117 8.18076 7.58379 9.70742 8.83135 10.955C10.0793 12.2023 11.606 12.8349 13.3689 12.8349ZM9.93559 2.98401C10.8929 2.02674 12.0158 1.56142 13.3689 1.56142C14.7217 1.56142 15.8449 2.02674 16.8023 2.98401C17.7596 3.94147 18.2251 5.06462 18.2251 6.41727C18.2251 7.77033 17.7596 8.89327 16.8023 9.85074C15.8449 10.8082 14.7217 11.2735 13.3689 11.2735C12.0162 11.2735 10.8933 10.808 9.93559 9.85074C8.97812 8.89347 8.5126 7.77033 8.5126 6.41727C8.5126 5.06462 8.97812 3.94147 9.93559 2.98401Z" fill="#6C7492"/>
<path d="M24.598 20.4887C24.562 19.9695 24.4892 19.4031 24.3821 18.8051C24.2739 18.2025 24.1347 17.6329 23.968 17.1123C23.7956 16.5742 23.5616 16.0429 23.2719 15.5336C22.9717 15.0051 22.6188 14.5449 22.2228 14.1661C21.8087 13.7699 21.3017 13.4514 20.7154 13.219C20.1312 12.9879 19.4837 12.8708 18.7911 12.8708C18.5192 12.8708 18.2561 12.9824 17.7481 13.3132C17.4354 13.517 17.0697 13.7529 16.6615 14.0137C16.3125 14.2361 15.8397 14.4444 15.2556 14.6331C14.6858 14.8175 14.1073 14.911 13.536 14.911C12.9652 14.911 12.3867 14.8175 11.8165 14.6331C11.233 14.4446 10.76 14.2363 10.4116 14.0139C10.0072 13.7555 9.64132 13.5197 9.32399 13.313C8.81639 12.9822 8.55334 12.8706 8.28135 12.8706C7.58855 12.8706 6.94129 12.9879 6.35726 13.2192C5.77139 13.4512 5.2642 13.7697 4.8497 14.1663C4.4537 14.5453 4.1008 15.0053 3.80075 15.5336C3.51148 16.0429 3.2773 16.574 3.10491 17.1125C2.93842 17.6331 2.79917 18.2025 2.69102 18.8051C2.58369 19.4023 2.51112 19.9689 2.47514 20.4893C2.43976 20.9981 2.42188 21.5277 2.42188 22.0627C2.42188 23.4536 2.86402 24.5796 3.73591 25.41C4.59702 26.2294 5.73622 26.6449 7.12201 26.6449H19.9517C21.3371 26.6449 22.4763 26.2294 23.3376 25.41C24.2097 24.5802 24.6518 23.4538 24.6518 22.0625C24.6516 21.5256 24.6335 20.9961 24.598 20.4887ZM22.261 24.2787C21.692 24.8202 20.9366 25.0835 19.9515 25.0835H7.12201C6.13669 25.0835 5.38129 24.8202 4.8125 24.2789C4.25448 23.7477 3.9833 23.0226 3.9833 22.0627C3.9833 21.5634 3.99977 21.0705 4.0327 20.5972C4.06482 20.1329 4.13048 19.6229 4.22785 19.0809C4.32401 18.5457 4.44638 18.0434 4.59194 17.5886C4.73159 17.1526 4.92207 16.7208 5.15829 16.3049C5.38373 15.9085 5.64312 15.5684 5.92934 15.2944C6.19707 15.038 6.53452 14.8282 6.93215 14.6709C7.29989 14.5253 7.71317 14.4456 8.16181 14.4337C8.2165 14.4627 8.31387 14.5182 8.47162 14.6211C8.79261 14.8303 9.16258 15.0689 9.57159 15.3301C10.0326 15.6241 10.6266 15.8896 11.3363 16.1187C12.0618 16.3533 12.8018 16.4724 13.5362 16.4724C14.2707 16.4724 15.0109 16.3533 15.736 16.1189C16.4463 15.8894 17.0401 15.6241 17.5017 15.3297C17.9203 15.0622 18.2799 14.8305 18.6009 14.6211C18.7586 14.5184 18.856 14.4627 18.9107 14.4337C19.3595 14.4456 19.7728 14.5253 20.1408 14.6709C20.5382 14.8282 20.8756 15.0382 21.1434 15.2944C21.4296 15.5682 21.689 15.9083 21.9144 16.3051C22.1508 16.7208 22.3415 17.1528 22.481 17.5884C22.6267 18.0438 22.7493 18.5459 22.8453 19.0807C22.9424 19.6237 23.0083 20.1339 23.0404 20.5974V20.5978C23.0735 21.0693 23.0902 21.562 23.0904 22.0627C23.0902 23.0228 22.819 23.7477 22.261 24.2787Z" fill="#6C7492"/>
</g>
<defs>
<clipPath id="clip0_316_7736">
<rect width="26.6449" height="26.6449" fill="white" transform="translate(0.236328)"/>
</clipPath>
</defs>
</svg>
