<svg width="50" height="50" viewBox="0 0 50 50" fill="none" xmlns="http://www.w3.org/2000/svg">
<g clip-path="url(#clip0_979_5286)">
<path d="M12.5 0H1.78571C0.798214 0 0 0.785627 0 1.75363V12.2754C0 13.2434 0.798214 14.029 1.78571 14.029H12.5C13.4875 14.029 14.2857 13.2434 14.2857 12.2754V1.75363C14.2857 0.785627 13.4875 0 12.5 0ZM10.7143 10.5218H3.57143V3.50726H10.7143V10.5218Z" fill="white"/>
<path d="M30.3569 0H19.6426C18.6551 0 17.8569 0.785627 17.8569 1.75363V12.2754C17.8569 13.2434 18.6551 14.029 19.6426 14.029H30.3569C31.3444 14.029 32.1426 13.2434 32.1426 12.2754V1.75363C32.1426 0.785627 31.3444 0 30.3569 0ZM28.5712 10.5218H21.4284V3.50726H28.5712V10.5218Z" fill="white"/>
<path d="M48.2144 0H37.5001C36.5126 0 35.7144 0.785627 35.7144 1.75363V12.2754C35.7144 13.2434 36.5126 14.029 37.5001 14.029H48.2144C49.2019 14.029 50.0001 13.2434 50.0001 12.2754V1.75363C50.0001 0.785627 49.2019 0 48.2144 0ZM46.4286 10.5218H39.2858V3.50726H46.4286V10.5218Z" fill="white"/>
<path d="M12.5 17.5364H1.78571C0.798214 17.5364 0 18.322 0 19.29V29.8118C0 30.7798 0.798214 31.5654 1.78571 31.5654H12.5C13.4875 31.5654 14.2857 30.7798 14.2857 29.8118V19.29C14.2857 18.322 13.4875 17.5364 12.5 17.5364ZM10.7143 28.0582H3.57143V21.0436H10.7143V28.0582Z" fill="white"/>
<path d="M30.3569 17.5364H19.6426C18.6551 17.5364 17.8569 18.322 17.8569 19.29V29.8118C17.8569 30.7798 18.6551 31.5654 19.6426 31.5654H30.3569C31.3444 31.5654 32.1426 30.7798 32.1426 29.8118V19.29C32.1426 18.322 31.3444 17.5364 30.3569 17.5364ZM28.5712 28.0582H21.4284V21.0436H28.5712V28.0582Z" fill="white"/>
<path d="M48.2144 17.5364H37.5001C36.5126 17.5364 35.7144 18.322 35.7144 19.29V29.8118C35.7144 30.7798 36.5126 31.5654 37.5001 31.5654H48.2144C49.2019 31.5654 50.0001 30.7798 50.0001 29.8118V19.29C50.0001 18.322 49.2019 17.5364 48.2144 17.5364ZM46.4286 28.0582H39.2858V21.0436H46.4286V28.0582Z" fill="white"/>
<path d="M12.5 35.0725H1.78571C0.798214 35.0725 0 35.8581 0 36.8261V47.3479C0 48.3159 0.798214 49.1016 1.78571 49.1016H12.5C13.4875 49.1016 14.2857 48.3159 14.2857 47.3479V36.8261C14.2857 35.8581 13.4875 35.0725 12.5 35.0725ZM10.7143 45.5943H3.57143V38.5798H10.7143V45.5943Z" fill="white"/>
<path d="M30.3569 35.0725H19.6426C18.6551 35.0725 17.8569 35.8581 17.8569 36.8261V47.3479C17.8569 48.3159 18.6551 49.1016 19.6426 49.1016H30.3569C31.3444 49.1016 32.1426 48.3159 32.1426 47.3479V36.8261C32.1426 35.8581 31.3444 35.0725 30.3569 35.0725ZM28.5712 45.5943H21.4284V38.5798H28.5712V45.5943Z" fill="white"/>
<path d="M48.2144 35.0725H37.5001C36.5126 35.0725 35.7144 35.8581 35.7144 36.8261V47.3479C35.7144 48.3159 36.5126 49.1016 37.5001 49.1016H48.2144C49.2019 49.1016 50.0001 48.3159 50.0001 47.3479V36.8261C50.0001 35.8581 49.2019 35.0725 48.2144 35.0725ZM46.4286 45.5943H39.2858V38.5798H46.4286V45.5943Z" fill="white"/>
</g>
<defs>
<clipPath id="clip0_979_5286">
<rect width="50" height="49.1017" fill="white"/>
</clipPath>
</defs>
</svg>
