<svg width="80" height="80" viewBox="0 0 80 80" fill="none" xmlns="http://www.w3.org/2000/svg">
<path d="M61.3043 24.5163L57.5386 17.9942C56.9747 17.0177 55.7948 16.581 54.7311 16.9552L50.3686 18.4899C49.2973 17.6922 48.1442 17.0252 46.9204 16.4949L46.0687 11.9535C45.8607 10.8449 44.8929 10.0417 43.7651 10.0417H36.2339C35.1061 10.0417 34.1381 10.845 33.9303 11.9535L33.0786 16.4949C31.8548 17.0252 30.7018 17.6921 29.6304 18.4899L25.2681 16.9552C24.2036 16.5813 23.0243 17.0174 22.4606 17.9942L18.695 24.5163C18.1311 25.493 18.3428 26.7328 19.1987 27.4671L22.707 30.4767C22.5557 31.7991 22.5557 33.1385 22.707 34.4608L19.1987 37.4707C18.3428 38.205 18.1312 39.4449 18.6951 40.4214L22.4607 46.9435C23.0245 47.92 24.2042 48.3568 25.2682 47.9824L29.6306 46.4477C30.702 47.2453 31.8553 47.9127 33.0787 48.4428L33.9304 52.9841C34.1384 54.0927 35.1062 54.8958 36.234 54.8958H43.7653C44.8931 54.8958 45.8609 54.0925 46.0689 52.9841L46.9206 48.4428C48.144 47.9127 49.2973 47.2455 50.3687 46.4477L54.7311 47.9824C55.7953 48.3566 56.9747 47.9202 57.5387 46.9435L61.3045 40.4214C61.8684 39.4449 61.6568 38.205 60.8008 37.4707L57.2925 34.4608C57.4437 33.1382 57.4437 31.7994 57.2925 30.4767L60.8008 27.4671C61.6565 26.7328 61.8683 25.4928 61.3043 24.5163ZM54.4517 42.915L50.6922 41.5924C49.8934 41.311 49.0059 41.4827 48.3695 42.0407C47.1125 43.1424 45.6762 43.9733 44.1006 44.5108C43.3004 44.7838 42.7093 45.4663 42.5536 46.2972L41.8201 50.2083H38.179L37.4456 46.2972C37.2897 45.4664 36.6986 44.7838 35.8986 44.5108C34.3229 43.9735 32.8867 43.1424 31.6295 42.0405C30.9929 41.4828 30.1053 41.3111 29.3068 41.5924L25.5473 42.915L23.7268 39.7617L26.7468 37.171C27.3878 36.6211 27.6832 35.7691 27.5208 34.9408C27.2014 33.3183 27.2014 31.6192 27.5208 29.9966C27.6834 29.168 27.3878 28.3161 26.7468 27.7664L23.7268 25.1757L25.5473 22.0225L29.307 23.3452C30.1051 23.6258 30.9931 23.4546 31.6295 22.8969C32.8864 21.7953 34.3226 20.9642 35.8987 20.4264C36.6987 20.1536 37.2898 19.4711 37.4456 18.6402L38.179 14.7291H41.8201L42.5536 18.6402C42.7093 19.471 43.3004 20.1536 44.1004 20.4264C45.6765 20.9641 47.1128 21.7953 48.3695 22.8967C49.0059 23.4547 49.894 23.6261 50.692 23.3452L54.4517 22.0225L56.2722 25.1757L53.2523 27.7664C52.6114 28.3163 52.3159 29.1682 52.4784 29.9964C52.7979 31.62 52.7979 33.3172 52.4784 34.941C52.3159 35.7694 52.6115 36.6213 53.2523 37.171L56.2723 39.7617L54.4517 42.915Z" fill="white"/>
<path d="M39.9993 25.1042C35.9385 25.1042 32.6348 28.408 32.6348 32.4688C33.0051 42.2257 46.9951 42.2228 47.364 32.4686C47.364 28.408 44.0601 25.1042 39.9993 25.1042ZM39.9993 35.146C38.5232 35.146 37.3223 33.9449 37.3223 32.4688C37.4568 28.9222 42.5424 28.9233 42.6765 32.4688C42.6765 33.9449 41.4754 35.146 39.9993 35.146Z" fill="white"/>
<path d="M39.9998 0C11.1446 0.07125 -5.86585 36.8103 20.4999 58.2966C23.3832 60.5019 25.1038 63.983 25.1038 67.612V72.6353C25.1038 76.7502 28.4459 80 32.4684 80H47.5309C51.5534 80 54.8954 76.7503 54.8954 72.6353V67.612C54.8954 63.9828 56.6162 60.5019 59.4993 58.2966C85.8595 36.818 68.8634 0.0726563 39.9998 0V0ZM50.2081 72.6353C50.2081 74.1114 49.0071 75.3125 47.531 75.3125H32.4685C30.9924 75.3125 29.7915 74.1114 29.7915 72.6353V69.9583H50.2082V72.6353H50.2081ZM56.7112 54.5286L56.6518 54.5731C53.2424 57.1809 50.9943 61.0653 50.3792 65.2708H29.6204C29.0052 61.0653 26.7571 57.1809 23.3477 54.5731L23.2884 54.5286C18.9824 51.3419 15.8671 47.2286 14.0288 42.3031C7.06681 23.7339 20.9257 4.74391 39.9999 4.68734C59.0782 4.74672 72.927 23.7302 65.9707 42.3031C64.1324 47.2287 61.017 51.342 56.7112 54.5286Z" fill="white"/>
<path d="M1.17205 12.757L4.05017 14.4191C5.29002 15.135 6.68017 14.5514 7.25189 13.5614C7.89924 12.4405 7.51517 11.0069 6.39424 10.3597L3.51611 8.69767C2.39517 8.05033 0.96158 8.43439 0.314392 9.55533C-0.332795 10.6761 0.0512673 12.1097 1.17205 12.757Z" fill="white"/>
<path d="M78.8279 52.1804L75.9496 50.5186C74.8287 49.8711 73.3951 50.2551 72.7481 51.3764C72.1007 52.4973 72.4848 53.9308 73.6059 54.578L76.4842 56.2398C77.7417 56.9661 79.1245 56.3542 79.6857 55.382C80.3331 54.2611 79.949 52.8278 78.8279 52.1804Z" fill="white"/>
<path d="M75.9498 14.419L78.8281 12.7569C79.949 12.1096 80.3331 10.6763 79.6857 9.55521C79.0384 8.43427 77.605 8.05021 76.484 8.69755L73.6057 10.3596C72.4848 11.0069 72.1007 12.4402 72.7481 13.5613C73.2987 14.5149 74.6695 15.1585 75.9498 14.419Z" fill="white"/>
<path d="M4.05032 50.5186L1.1722 52.1804C0.0512618 52.8278 -0.332801 54.2611 0.314387 55.382C0.864074 56.334 2.23314 56.9803 3.51611 56.2398L6.39423 54.5779C7.51517 53.9306 7.89923 52.4973 7.25204 51.3764C6.60486 50.2556 5.17142 49.8717 4.05032 50.5186Z" fill="white"/>
</svg>
