<svg width="40" height="40" viewBox="0 0 40 40" fill="none" xmlns="http://www.w3.org/2000/svg">
<g clip-path="url(#clip0_374_288)">
<path d="M4.47672 17.7902C3.86648 17.1799 3.86648 16.1905 4.47672 15.5804L13.6251 6.43203C14.2353 5.82195 15.2246 5.8218 15.8348 6.43203L21.587 12.1842L30.6462 3.125H26.6324C25.7695 3.125 25.0699 2.42547 25.0699 1.5625C25.0699 0.699532 25.7695 2.29725e-07 26.6324 2.29725e-07H34.4176C35.2945 -0.00046852 35.9809 0.716485 35.9809 1.5625V9.34844C35.9809 10.2114 35.2813 10.9109 34.4184 10.9109C33.5554 10.9109 32.8559 10.2114 32.8559 9.34844V5.33477L22.6918 15.4988C22.0816 16.1091 21.0923 16.1091 20.4821 15.4988L14.7299 9.74664L6.68641 17.7902C6.07625 18.4004 5.0868 18.4002 4.47672 17.7902ZM11.1632 29.2188V38.4375C11.1632 39.3005 10.4637 40 9.6007 40H1.5625C0.699531 40 0 39.3005 0 38.4375V29.2188C0 28.3558 0.699531 27.6562 1.5625 27.6562H9.6007C10.4637 27.6562 11.1632 28.3558 11.1632 29.2188ZM8.0382 30.7812H3.125V36.875H8.0382V30.7812ZM25.5816 23.2755V38.4375C25.5816 39.3005 24.882 40 24.0191 40H15.9809C15.118 40 14.4184 39.3005 14.4184 38.4375V23.2755C14.4184 22.4125 15.118 21.713 15.9809 21.713H24.0191C24.882 21.713 25.5816 22.4125 25.5816 23.2755ZM22.4566 24.838H17.5434V36.875H22.4566V24.838ZM40 17.3323V38.4375C40 39.3005 39.3005 40 38.4375 40H30.3993C29.5363 40 28.8368 39.3005 28.8368 38.4375V17.3323C28.8368 16.4693 29.5363 15.7698 30.3993 15.7698H38.4375C39.3005 15.7698 40 16.4693 40 17.3323ZM36.875 18.8948H31.9618V36.875H36.875V18.8948Z" fill="#BDC5E3"/>
</g>
<defs>
<clipPath id="clip0_374_288">
<rect width="40" height="40" fill="white"/>
</clipPath>
</defs>
</svg>
