<svg width="31" height="31" viewBox="0 0 31 31" fill="none" xmlns="http://www.w3.org/2000/svg">
<path d="M16.3771 11.4055H7.60352V12.5753H16.3771V11.4055Z" fill="#111F52"/>
<path d="M19.3017 15.5H7.60352V16.6698H19.3017V15.5Z" fill="#111F52"/>
<path d="M19.3017 19.5942H7.60352V20.7641H19.3017V19.5942Z" fill="#111F52"/>
<path d="M28.1475 2.04712H2.99877C1.38543 2.04712 0 3.28748 0 4.90172V15.4237C0 17.0379 1.31205 18.3514 2.92454 18.3514C3.5854 18.3514 4.24058 18.1229 4.67924 17.7521V28.2948C4.67924 28.6178 5.01425 28.9528 5.33727 28.9528H25.809C26.132 28.9528 26.3208 28.6178 26.3208 28.2948V17.7521C26.9056 18.1229 27.4146 18.3514 28.0755 18.3514C29.6879 18.3514 31 17.038 31 15.4237V4.90172C31 3.28748 29.7608 2.04712 28.1475 2.04712ZM25.1509 15.4291V27.783H5.84907V15.4291V9.57782C5.84907 9.25535 6.18638 9.06601 6.51139 9.06601H24.6349C24.9599 9.06601 25.151 9.25535 25.151 9.57782V15.4291H25.1509ZM29.8302 15.4237C29.8302 16.393 29.0431 17.1816 28.0755 17.1816C27.1079 17.1816 26.3208 16.3953 26.3208 15.4292V9.57788V9.06608H27.4906V7.89625H24.6349H6.51139H3.50948V9.06608H4.6793V9.57788V15.4292C4.6793 16.3954 3.8922 17.1816 2.9246 17.1816C1.957 17.1816 1.16989 16.393 1.16989 15.4237V4.90172C1.16989 3.93243 2.03068 3.21695 2.99889 3.21695H28.1476C29.1158 3.21695 29.8303 3.93237 29.8303 4.90172V15.4237H29.8302Z" fill="#111F52"/>
</svg>
