<svg width="21" height="21" viewBox="0 0 21 21" fill="none" xmlns="http://www.w3.org/2000/svg">
<g clip-path="url(#clip0_1611_20603)">
<path d="M13.5315 0.121285C13.4352 0.0198671 13.3032 -0.0410156 13.1664 -0.0410156H4.97427C3.46262 -0.0410156 2.21484 1.20179 2.21484 2.71328V18.2046C2.21484 19.7162 3.46262 20.959 4.97427 20.959H16.0931C17.6047 20.959 18.8525 19.7162 18.8525 18.2046V5.90386C18.8525 5.772 18.7916 5.64527 18.7054 5.54882L13.5315 0.121285ZM13.6786 1.74958L17.1431 5.38652H14.8909C14.2214 5.38652 13.6786 4.84883 13.6786 4.17928V1.74958ZM16.0931 19.9445H4.97427C4.02578 19.9445 3.22934 19.1583 3.22934 18.2046V2.71328C3.22934 1.7648 4.02066 0.973482 4.97427 0.973482H12.6641V4.17928C12.6641 5.41183 13.6584 6.40101 14.8909 6.40101H17.838V18.2046C17.838 19.1583 17.0467 19.9445 16.0931 19.9445Z" fill="#111F52"/>
<path d="M14.7081 14.4824H6.35881C6.07987 14.4824 5.85156 14.7106 5.85156 14.9897C5.85156 15.2686 6.07987 15.4969 6.35881 15.4969H14.7132C14.9921 15.4969 15.2204 15.2686 15.2204 14.9897C15.2204 14.7106 14.9921 14.4824 14.7081 14.4824Z" fill="#111F52"/>
<path d="M14.7081 11.5859H6.35881C6.07987 11.5859 5.85156 11.8141 5.85156 12.0932C5.85156 12.3721 6.07987 12.6004 6.35881 12.6004H14.7132C14.9921 12.6004 15.2204 12.3721 15.2204 12.0932C15.2204 11.8141 14.9921 11.5859 14.7081 11.5859Z" fill="#111F52"/>
<path d="M14.7081 8.68945H6.35881C6.07987 8.68945 5.85156 8.9176 5.85156 9.1967C5.85156 9.47564 6.07987 9.70395 6.35881 9.70395H14.7132C14.9921 9.70395 15.2204 9.47564 15.2204 9.1967C15.2204 8.9176 14.9921 8.68945 14.7081 8.68945Z" fill="#111F52"/>
<path d="M14.7081 5.79297H6.35881C6.07987 5.79297 5.85156 6.02112 5.85156 6.30022C5.85156 6.57916 6.07987 6.80747 6.35881 6.80747H14.7132C14.9921 6.80747 15.2204 6.57916 15.2204 6.30022C15.2204 6.02112 14.9921 5.79297 14.7081 5.79297Z" fill="#111F52"/>
</g>
<defs>
<clipPath id="clip0_1611_20603">
<rect width="21" height="21" fill="white"/>
</clipPath>
</defs>
</svg>
