<svg width="27" height="27" viewBox="0 0 27 27" fill="none" xmlns="http://www.w3.org/2000/svg">
<g clip-path="url(#clip0_941_8398)">
<path d="M5.50155 17.9478C8.16462 21.1312 11.3704 23.6376 15.0293 25.4111C16.4224 26.0713 18.2854 26.8545 20.3611 26.9888C20.4897 26.9944 20.6128 27 20.7415 27C22.1346 27 23.2535 26.5189 24.1655 25.5286C24.171 25.523 24.1822 25.5118 24.1878 25.5006C24.5123 25.109 24.8816 24.7565 25.2676 24.3817C25.5306 24.1299 25.7991 23.867 26.0565 23.5984C27.2481 22.3564 27.2481 20.7787 26.0453 19.5758L22.6829 16.2134C22.1122 15.6204 21.4296 15.3071 20.7135 15.3071C19.9974 15.3071 19.3093 15.6204 18.7218 16.2078L16.7189 18.2107C16.5343 18.1044 16.3441 18.0093 16.165 17.9198C15.9413 17.8079 15.7342 17.7016 15.5496 17.5841C13.7258 16.426 12.0697 14.9155 10.4864 12.9741C9.68638 11.9615 9.14929 11.1111 8.77445 10.2439C9.30035 9.76834 9.79268 9.27041 10.2682 8.78367C10.4361 8.61024 10.6095 8.4368 10.7829 8.26336C11.3872 7.65914 11.7117 6.9598 11.7117 6.24927C11.7117 5.53875 11.3928 4.83941 10.7829 4.23518L9.11572 2.56797C8.91991 2.37215 8.73528 2.18193 8.54506 1.98612C8.17581 1.60568 7.78978 1.21405 7.40934 0.861583C6.83309 0.296519 6.15613 0 5.44001 0C4.72948 0 4.04693 0.296519 3.44829 0.867178L1.35588 2.95959C0.594999 3.72047 0.164208 4.6436 0.0746925 5.71218C-0.0316067 7.04932 0.21456 8.47037 0.852355 10.1879C1.83143 12.8454 3.30843 15.3127 5.50155 17.9478ZM1.4398 5.82967C1.50693 5.08558 1.79226 4.46457 2.32936 3.92748L4.41058 1.84625C4.73507 1.53295 5.09314 1.3707 5.44001 1.3707C5.78128 1.3707 6.12815 1.53295 6.44705 1.85744C6.8219 2.20431 7.17436 2.56797 7.5548 2.954C7.74502 3.14981 7.94084 3.34563 8.13665 3.54704L9.80387 5.21426C10.1507 5.56113 10.3298 5.91359 10.3298 6.26046C10.3298 6.60734 10.1507 6.9598 9.80387 7.30667C9.63043 7.48011 9.457 7.65914 9.28356 7.83257C8.76326 8.35847 8.27652 8.8564 7.73943 9.33195C7.72824 9.34314 7.72264 9.34874 7.71145 9.35993C7.24709 9.82429 7.31982 10.2663 7.43172 10.6019C7.43731 10.6187 7.44291 10.6299 7.4485 10.6467C7.87929 11.6817 8.47793 12.6664 9.41224 13.8413C11.0906 15.9113 12.8586 17.517 14.8055 18.7534C15.0461 18.9101 15.3035 19.0332 15.544 19.1562C15.7678 19.2681 15.9748 19.3744 16.1594 19.4919C16.1818 19.5031 16.1986 19.5143 16.221 19.5255C16.4056 19.6206 16.5846 19.6654 16.7637 19.6654C17.2112 19.6654 17.5022 19.38 17.5973 19.2849L19.6897 17.1925C20.0142 16.868 20.3667 16.6946 20.7135 16.6946C21.1387 16.6946 21.4856 16.9575 21.7038 17.1925L25.0774 20.5605C25.7488 21.2319 25.7432 21.9592 25.0606 22.6697C24.8256 22.9215 24.5795 23.162 24.3165 23.4138C23.9249 23.7942 23.5165 24.1859 23.1472 24.6278C22.5038 25.3216 21.7374 25.6461 20.7471 25.6461C20.652 25.6461 20.5513 25.6405 20.4562 25.6349C18.6211 25.5174 16.9147 24.8013 15.6335 24.1915C12.1536 22.5075 9.09894 20.1185 6.56454 17.0862C4.47772 14.5742 3.07345 12.2356 2.14473 9.72917C1.56848 8.19063 1.35028 6.95421 1.4398 5.82967Z" fill="#111F52"/>
</g>
<defs>
<clipPath id="clip0_941_8398">
<rect width="27" height="27" fill="white"/>
</clipPath>
</defs>
</svg>
