<svg width="44" height="41" viewBox="0 0 44 41" fill="none" xmlns="http://www.w3.org/2000/svg">
<rect y="0.381836" width="43.5556" height="40" fill="#426871"/>
<g clip-path="url(#clip0_316_8309)">
<path d="M28.6932 19.9428L21.2927 12.5628C21.0502 12.3211 20.6577 12.3215 20.4156 12.564C20.1737 12.8065 20.1744 13.1993 20.4169 13.4411L27.3768 20.3819L20.4166 27.3226C20.1741 27.5645 20.1735 27.957 20.4154 28.1995C20.5367 28.321 20.6957 28.3818 20.8546 28.3818C21.0132 28.3818 21.1716 28.3215 21.2927 28.2007L28.6932 20.8209C28.81 20.7047 28.8755 20.5466 28.8755 20.3819C28.8755 20.2171 28.8098 20.0592 28.6932 19.9428Z" fill="white"/>
</g>
<defs>
<clipPath id="clip0_316_8309">
<rect width="16" height="16" fill="white" transform="translate(16.5547 12.3818)"/>
</clipPath>
</defs>
</svg>
