<svg width="80" height="80" viewBox="0 0 80 80" fill="none" xmlns="http://www.w3.org/2000/svg">
<g clip-path="url(#clip0_708_4842)">
<path d="M55.4703 23.6397C51.4366 19.7074 45.9422 17.5417 39.9997 17.5417C34.0571 17.5417 28.5627 19.7074 24.5291 23.6397C20.4962 27.5712 18.2754 32.9166 18.2754 38.6915C18.2754 44.8549 21.0157 50.7359 25.7939 54.8269C28.2976 56.9703 29.878 59.9347 30.4056 63.4411C29.1214 64.1947 28.2578 65.5817 28.2578 67.1657V68.4619C28.2578 70.4317 29.5932 72.0971 31.413 72.6178C31.1701 73.1561 31.0339 73.7515 31.0339 74.3783V75.6746C31.0339 78.0597 32.9909 80.0002 35.3964 80.0002H44.6031C47.0086 80.0002 48.9656 78.0597 48.9656 75.6746V74.3783C48.9656 73.7515 48.8294 73.1559 48.5865 72.6178C50.4063 72.0971 51.7417 70.4318 51.7417 68.4619V67.1657C51.7417 65.5817 50.8781 64.1947 49.5939 63.4411C50.1217 59.9347 51.7021 56.9703 54.2057 54.8269C58.9838 50.7361 61.7241 44.8551 61.7241 38.6915C61.7241 32.9166 59.5031 27.5712 55.4703 23.6397ZM46.2306 75.6744C46.2306 76.5515 45.5005 77.265 44.6031 77.265H35.3962C34.4988 77.265 33.7687 76.5515 33.7687 75.6744V74.3782C33.7687 73.5011 34.4988 72.7874 35.3962 72.7874H44.6029C45.5003 72.7874 46.2304 73.5009 46.2304 74.3782V75.6744H46.2306ZM49.0065 68.4618C49.0065 69.3388 48.2764 70.0523 47.379 70.0523H44.6029H35.3962H32.6202C31.7227 70.0523 30.9927 69.3388 30.9927 68.4618V67.1655C30.9927 66.2884 31.7227 65.5749 32.6202 65.5749H47.379C48.2764 65.5749 49.0065 66.2884 49.0065 67.1655V68.4618ZM35.7585 45.6833H33.046C31.9491 45.6833 31.0568 44.8093 31.0568 43.7351C31.0568 42.6609 31.9491 41.7867 33.046 41.7867H33.7692C34.8662 41.7867 35.7585 42.6607 35.7585 43.7351V45.6833ZM41.6038 62.8399H38.4935V48.4183H41.6038V62.8399ZM52.4268 52.7491C49.4592 55.2898 47.5744 58.7597 46.92 62.8399H44.3386V48.4183H47.0957C49.7007 48.4183 51.82 46.3173 51.82 43.7351C51.82 41.1527 49.7007 39.0517 47.0957 39.0517H46.3279C43.7229 39.0517 41.6036 41.1527 41.6036 43.7351V45.6833H38.4933V43.7351C38.4933 41.1527 36.374 39.0517 33.7691 39.0517H33.0458C30.4409 39.0517 28.3215 41.1527 28.3215 43.7351C28.3215 46.3175 30.4409 48.4183 33.0458 48.4183H35.7583V62.8399H33.079C32.4246 58.7597 30.5398 55.2898 27.5721 52.7491C23.4019 49.1787 21.0099 44.0547 21.0099 38.6915C21.0099 28.1934 29.1735 20.2768 39.9993 20.2768C50.8251 20.2768 58.9887 28.1934 58.9887 38.6915C58.9891 44.0547 56.5973 49.1785 52.4268 52.7491ZM44.3388 45.6833V43.7351C44.3388 42.6607 45.2311 41.7867 46.328 41.7867H47.0959C48.1928 41.7867 49.0851 42.6607 49.0851 43.7351C49.0851 44.8094 48.1928 45.6833 47.0959 45.6833H44.3388Z" fill="#111F52"/>
<path d="M61.9016 69.1513C60.8869 69.1513 59.9028 68.7675 59.1444 68.0111L55.2987 64.1761L57.23 62.2395L61.0756 66.0745C61.5977 66.5951 62.2965 66.4424 62.7692 66.1381L67.4832 61.5939C67.9907 61.0805 67.8438 60.3971 67.5456 59.9306L63.7912 56.1865C63.3242 55.7209 63.2562 54.9884 63.6291 54.4446C65.6755 51.4621 67.1539 47.986 67.9047 44.3923C68.0372 43.7585 68.5958 43.3044 69.2433 43.3044H74.5924C75.0445 43.2258 75.7273 42.9017 75.7273 42.1152V35.5033C75.6683 35.1641 75.4177 34.3745 74.3709 34.3745H68.9228C68.2546 34.3745 67.6842 33.8916 67.5739 33.2325C67.0066 29.8374 65.5808 26.3156 63.4509 23.0475C63.0975 22.5053 63.1726 21.7896 63.6309 21.3325L67.4765 17.4974C67.995 16.9803 67.8433 16.2877 67.5401 15.8191L62.9833 11.1183C62.4654 10.6089 61.7756 10.7564 61.3052 11.0561L57.5507 14.8002C57.0857 15.2639 56.3567 15.3315 55.8143 14.9615C52.8228 12.9203 49.3363 11.4455 45.7315 10.6966C45.097 10.5648 44.6421 10.0056 44.6421 9.35761V3.92427C44.6421 3.21299 44.1064 2.73504 43.6061 2.73504H36.975C36.5228 2.8135 35.8401 3.13778 35.8401 3.92427V9.51709C35.8401 10.1858 35.3565 10.7564 34.6968 10.8662C31.2912 11.4323 27.7586 12.8545 24.4808 14.9791C23.9399 15.3297 23.2276 15.255 22.7714 14.8L18.9257 10.965C18.4037 10.4446 17.7049 10.5971 17.2322 10.9014L12.518 15.4458C12.0107 15.959 12.1577 16.6424 12.456 17.1087L16.2103 20.8528C16.6774 21.3185 16.7454 22.0511 16.3724 22.5947C14.3261 25.5773 12.8476 29.0533 12.0968 32.6472C11.9644 33.281 11.4057 33.735 10.7582 33.735H5.40915C4.95701 33.8135 4.27411 34.1378 4.27411 34.9243V41.5359C4.35308 41.986 4.67889 42.665 5.47034 42.665H10.9182C11.5864 42.665 12.1568 43.1479 12.2671 43.807C12.8344 47.2022 14.2603 50.7241 16.3903 53.992C16.7437 54.5342 16.6686 55.2499 16.2103 55.707L12.3647 59.5421C11.8462 60.0592 11.9979 60.7518 12.3013 61.2203L16.858 65.9214C17.3762 66.4306 18.0657 66.2831 18.5362 65.9836L22.2907 62.2393L24.222 64.1759L20.3763 68.0109C20.323 68.0641 20.2656 68.1128 20.2042 68.1564C18.4944 69.3744 16.3215 69.2489 14.9199 67.8511C14.9144 67.8456 14.9091 67.8402 14.9037 67.8345L10.2568 63.041C10.2098 62.9925 10.1664 62.9405 10.1269 62.8857C8.90316 61.1771 9.02915 59.0058 10.4333 57.6055L13.5057 54.5415C11.7204 51.5938 10.451 48.4721 9.78829 45.4H5.47034C3.45958 45.4 1.81069 43.8884 1.54966 41.8056C1.54265 41.7492 1.53906 41.6925 1.53906 41.6356V34.9243C1.53906 32.9168 3.05376 31.2708 5.14094 31.0104C5.19701 31.0034 5.25359 30.9998 5.31017 30.9998H9.66778C10.4558 27.818 11.7609 24.745 13.4893 22.0017L10.4334 18.9542C10.3799 18.901 10.3312 18.8434 10.2873 18.7822C9.06351 17.0737 9.18949 14.9024 10.5936 13.5022C10.5991 13.4968 10.6045 13.4915 10.6102 13.486L15.4172 8.85197C15.4659 8.80513 15.5179 8.76188 15.5729 8.72274C17.2825 7.50479 19.4556 7.63026 20.8572 9.02821L23.9336 12.0961C26.891 10.3138 30.0233 9.04701 33.1054 8.38581V3.92427C33.1054 1.91658 34.6201 0.270598 36.7073 0.0105983C36.763 0.00358974 36.8196 0 36.876 0H43.6059C45.6852 0 47.377 1.76034 47.377 3.92427V8.26564C50.5697 9.0518 53.6526 10.3544 56.4047 12.0798L59.4649 9.02821C59.5182 8.97504 59.5756 8.92633 59.637 8.88274C61.3466 7.66479 63.5196 7.79026 64.9213 9.18804C64.9268 9.19351 64.9322 9.19898 64.9375 9.20462L69.5844 13.9985C69.6314 14.047 69.6748 14.099 69.7143 14.154C70.938 15.8626 70.8119 18.0338 69.408 19.434L66.3356 22.498C68.1208 25.4456 69.3902 28.5677 70.0531 31.6395H74.371C76.5085 31.6395 78.1866 33.1174 78.4519 35.2338C78.4589 35.2903 78.4625 35.3472 78.4625 35.4039V42.1152C78.4625 44.1227 76.9478 45.7687 74.8606 46.0291C74.8045 46.0361 74.748 46.0397 74.6914 46.0397H70.3338C69.5457 49.2215 68.2406 52.2945 66.5122 55.0378L69.5681 58.0853C69.6216 58.1385 69.6703 58.1961 69.7143 58.2573C70.938 59.9658 70.8121 62.1371 69.408 63.5374C69.4025 63.5429 69.397 63.5482 69.3914 63.5537L64.5844 68.1877C64.5356 68.2345 64.4837 68.2778 64.4286 68.3169C63.644 68.8752 62.7618 69.1513 61.9016 69.1513Z" fill="#3E7863"/>
</g>
<defs>
<clipPath id="clip0_708_4842">
<rect width="80" height="80" fill="white"/>
</clipPath>
</defs>
</svg>
