<svg width="40" height="41" viewBox="0 0 40 41" fill="none" xmlns="http://www.w3.org/2000/svg">
<g clip-path="url(#clip0_376_308)">
<path d="M24.0381 40.0972C25.3519 40.0972 26.4975 38.9516 26.4975 37.6379V31.8943H28.1396C29.125 31.8943 29.7817 31.2373 29.7817 30.2522V13.8477H10.0918V30.2523C10.0918 31.2376 10.7486 31.8944 11.7339 31.8944H13.3762V37.638C13.3762 38.9517 14.5215 40.0973 15.8355 40.0973C17.1491 40.0973 18.2946 38.9517 18.2946 37.638V31.8944H21.579V37.638C21.5788 38.9516 22.7244 40.0972 24.0381 40.0972Z" fill="#fff"/>
<path d="M33.8832 30.2523C35.1969 30.2523 36.3422 29.1068 36.3422 27.793V16.3059C36.3422 14.9992 35.1969 13.8477 33.8832 13.8477C32.5693 13.8477 31.4238 14.9992 31.4238 16.3059V27.793C31.4238 29.1067 32.5692 30.2523 33.8832 30.2523Z" fill="#fff"/>
<path d="M5.99031 30.2523C7.30415 30.2523 8.44964 29.1068 8.44964 27.793V16.3059C8.44964 14.9992 7.30428 13.8477 5.99031 13.8477C4.67661 13.8477 3.53125 14.9992 3.53125 16.3059V27.793C3.53125 29.1067 4.67661 30.2523 5.99031 30.2523Z" fill="#fff"/>
<path d="M27.811 1.05443C27.4827 0.724043 26.994 0.724043 26.6657 1.05443L24.4632 3.24958L24.3616 3.35105C23.0556 2.69709 21.5914 2.3705 19.9608 2.36735C19.9528 2.36735 19.945 2.36709 19.937 2.36709H19.9367C19.9284 2.36709 19.9208 2.36735 19.9126 2.36735C18.2821 2.3705 16.8179 2.69709 15.5121 3.35105L15.4102 3.24958L13.2078 1.05443C12.8793 0.724043 12.3908 0.724043 12.0625 1.05443C11.7339 1.38299 11.7339 1.87058 12.0625 2.19888L14.193 4.32978C13.5065 4.78813 12.884 5.34901 12.3427 5.99052C11.0467 7.52671 10.22 9.52598 10.1063 11.6921C10.1053 11.7147 10.1031 11.737 10.102 11.7595C10.0951 11.907 10.0918 12.0553 10.0918 12.2041H29.7817C29.7817 12.0553 29.7782 11.907 29.7715 11.7595C29.7705 11.737 29.7682 11.7147 29.7669 11.6921C29.6535 9.52598 28.8266 7.52658 27.5306 5.99065C26.9895 5.34914 26.3668 4.78826 25.6803 4.32991L27.811 2.19901C28.1396 1.87058 28.1396 1.38299 27.811 1.05443ZM15.8324 9.33692C15.153 9.33692 14.6022 8.78614 14.6022 8.10674C14.6022 7.42733 15.153 6.87655 15.8324 6.87655C16.5118 6.87655 17.0625 7.42733 17.0625 8.10674C17.0625 8.78614 16.5118 9.33692 15.8324 9.33692ZM24.0412 9.33692C23.3618 9.33692 22.811 8.78614 22.811 8.10674C22.811 7.42733 23.3618 6.87655 24.0412 6.87655C24.7206 6.87655 25.2714 7.42733 25.2714 8.10674C25.2714 8.78614 24.7206 9.33692 24.0412 9.33692Z" fill="#fff"/>
</g>
<defs>
<clipPath id="clip0_376_308">
<rect width="39.2903" height="39.2903" fill="white" transform="translate(0.291016 0.806641)"/>
</clipPath>
</defs>
</svg>
