<svg width="40" height="45" viewBox="0 0 40 45" fill="none" xmlns="http://www.w3.org/2000/svg">
<g clip-path="url(#clip0_368_596)">
<path d="M23.8974 0.412109H15.2295C6.88656 0.412109 0.0605469 7.29697 0.0605469 15.7118V22.2688C0.0605469 28.1701 3.47356 33.5797 8.7285 36.0932V43.4152C8.7285 44.0709 9.54112 44.3987 9.97452 43.907L16.2588 37.5685H23.8974C32.2403 37.5685 39.0664 30.6837 39.0664 22.2688V15.7118C39.0664 7.29697 32.2403 0.412109 23.8974 0.412109ZM29.5858 29.099L27.3646 31.2847C25.0351 33.5797 19.0217 30.9569 13.7126 25.4927C8.40346 20.0285 6.07394 13.9086 8.29511 11.6137L10.4621 9.428C11.2747 8.60838 12.6291 8.66302 13.5501 9.48264L16.6922 12.7611C17.8299 13.9086 17.3423 15.8757 15.8796 16.3129C14.8502 16.6407 14.146 17.7882 14.471 18.8264C15.0128 21.2306 18.0466 24.2906 20.3219 24.8916C21.3512 25.1102 22.4889 24.5638 22.8681 23.5256C23.3557 22.0503 25.306 21.6131 26.3895 22.7606L29.5316 26.0391C30.3984 26.8041 30.3984 28.1701 29.5858 29.099ZM21.5137 10.794C21.297 10.794 21.0803 10.794 20.8636 10.8487C20.4844 10.9033 20.1052 10.5755 20.051 10.193C19.9968 9.81049 20.3219 9.428 20.7011 9.37336C20.972 9.31872 21.2429 9.31872 21.5137 9.31872C25.4685 9.31872 28.719 12.5972 28.719 16.5861C28.719 16.8593 28.719 17.1325 28.6648 17.4057C28.6106 17.7882 28.2314 18.116 27.8522 18.0614C27.473 18.0068 27.1479 17.6243 27.2021 17.2418C27.2021 17.0232 27.2563 16.8046 27.2563 16.5861C27.3104 13.4169 24.7101 10.794 21.5137 10.794ZM25.8477 16.6407C25.8477 17.0232 25.5227 17.3511 25.1434 17.3511C24.7642 17.3511 24.4392 17.0232 24.4392 16.6407C24.4392 15.0561 23.139 13.7447 21.5679 13.7447C21.1887 13.7447 20.8636 13.4169 20.8636 13.0344C20.8636 12.6519 21.1887 12.324 21.5679 12.324C23.8974 12.2694 25.8477 14.2365 25.8477 16.6407ZM31.3735 18.9903C31.2652 19.3728 30.886 19.646 30.4526 19.5367C30.0733 19.4274 29.8566 19.045 29.965 18.6625C30.1275 18.0068 30.1817 17.3511 30.1817 16.6407C30.1817 11.8322 26.2811 7.89803 21.5137 7.89803C21.297 7.89803 21.0803 7.89803 20.8636 7.89803C20.4844 7.89803 20.1052 7.62482 20.1052 7.24233C20.1052 6.85984 20.3761 6.47735 20.7553 6.47735C21.0262 6.47735 21.297 6.4227 21.5137 6.4227C27.0937 6.4227 31.6444 11.0126 31.6444 16.6407C31.6444 17.4057 31.5361 18.2253 31.3735 18.9903Z" fill="#fff"/>
</g>
<defs>
<clipPath id="clip0_368_596">
<rect width="39.1262" height="44.017" fill="white" transform="translate(0 0.260254)"/>
</clipPath>
</defs>
</svg>
